<?xml version="1.0" encoding="UTF-8"?>
<svg width="15px" height="12px" viewBox="0 0 15 12" version="1.1" xmlns="http://www.w3.org/2000/svg" xmlns:xlink="http://www.w3.org/1999/xlink">
    <!-- Generator: Sketch 55.2 (78181) - https://sketchapp.com -->
    <title>Shape</title>
    <desc>Created with Sketch.</desc>
    <g id="Page-1" stroke="none" stroke-width="1" fill="none" fill-rule="evenodd">
        <g id="4_Catalogue-(eÌtat-initial)" transform="translate(-403.000000, -1239.000000)" fill="#F97575" fill-rule="nonzero">
            <g id="Carte-EDOF" transform="translate(379.000000, 1101.000000)">
                <g id="noun_description_2303077" transform="translate(24.000000, 138.000000)">
                    <path d="M11.0181843,7.4972119 C10.1130174,8.98536245 9.55886488,9.89597716 9.52816391,9.94725836 C9.52509381,9.95223712 9.49388116,10.0030204 9.45499326,10.0478293 C9.43503763,10.0702337 9.41457032,10.0901487 9.39563805,10.1075743 L7.78946562,11.0241636 L7.84114559,9.23479819 C7.8467741,9.2039299 7.85649608,9.16858072 7.87082319,9.13074217 C7.89180219,9.07547796 7.91585128,9.03714153 7.92557326,9.02071163 C7.95525086,8.97142193 9.98970183,5.6261949 12.5250903,1.45797929 C12.5419758,1.44403877 12.6274269,1.43159187 12.7231116,1.48685608 L14.0089705,2.22769517 C14.1046552,2.2824615 14.1343328,2.36062799 14.1317744,2.37805364 L11.0181843,7.4972119 Z M14.940745,2.05891529 C15.0369414,2.31432554 15.0154507,2.5881572 14.8803664,2.80921402 L11.7667763,7.92837228 C10.8626328,9.41453133 10.3095036,10.3241503 10.278291,10.3754315 C10.2741975,10.3824018 10.205632,10.4959174 10.1145524,10.5989777 C10.0500804,10.6721654 9.98714342,10.729919 9.93136999,10.7757236 L9.87150309,10.8170473 L7.95627423,11.9103824 C7.864683,11.9611657 7.73932071,12 7.6021897,12 C7.48961948,12 7.36886233,11.9741105 7.25271033,11.9068972 C7.00096237,11.7620154 6.91090619,11.5090945 6.91090619,11.3208975 L6.97742496,9.12725704 C6.99021703,9.04510754 7.01375444,8.9455324 7.05520075,8.83599973 C7.10329894,8.7115308 7.15651395,8.6234068 7.17544622,8.5925385 C7.20000699,8.55171269 9.23701637,5.20200478 11.7790567,1.02333378 C11.9136293,0.802276952 12.1495151,0.651918481 12.4268472,0.611092671 C12.67399,0.574249867 12.936995,0.627024695 13.1662289,0.758463887 L14.4520879,1.49930297 C14.6808101,1.63074217 14.8542706,1.82939458 14.940745,2.05891529 Z M6.27386106,7.16199217 C6.51384031,7.16199217 6.70879147,7.35118494 6.70879147,7.58518654 C6.70879147,7.81869025 6.51384031,8.00838091 6.27386106,8.00838091 L2.18858526,8.00838091 C1.94809433,8.00838091 1.75365485,7.81869025 1.75365485,7.58518654 C1.75365485,7.35118494 1.94809433,7.16199217 2.18858526,7.16199217 L6.27386106,7.16199217 Z M2.18863643,5.45368096 L7.31058165,5.45368096 C7.55056091,5.45368096 7.74551207,5.64287374 7.74551207,5.87687533 C7.74551207,6.11037905 7.55056091,6.3000697 7.31058165,6.3000697 L2.18863643,6.3000697 C1.9481455,6.3000697 1.75370602,6.11037905 1.75370602,5.87687533 C1.75370602,5.64287374 1.9481455,5.45368096 2.18863643,5.45368096 Z M5.61379019,11.021475 C5.8522344,11.021475 6.04872061,11.2126593 6.04872061,11.4446694 C6.04872061,11.6766795 5.8522344,11.8678638 5.61379019,11.8678638 L0.964128228,11.8678638 C0.902214605,11.866868 0.502078627,11.8539233 0.224234846,11.5308019 C0.0139331992,11.2863449 0.000629445344,11.0125133 5.56007826e-05,10.9298659 L5.56007826e-05,0.938495751 C-0.000905603172,0.856346256 0.00830468794,0.584506107 0.213489506,0.340049124 C0.491844971,0.00846388741 0.905284702,0.00049787573 0.964128228,0 L6.71902512,0 C6.74614432,0.00099575146 6.7824738,0.00448088157 6.82289674,0.0169277748 C6.89453234,0.0393321827 6.94263053,0.0786643654 6.96821467,0.103060276 C7.80123433,0.914597716 8.63374231,1.72613516 9.46676197,2.53717472 C9.49132274,2.56157063 9.58086724,2.65467339 9.59263595,2.80353824 C9.60338129,2.93945831 9.54300271,3.03753983 9.5225354,3.06791025 C9.43145585,3.21777084 9.34037631,3.36763144 9.24929676,3.51749203 C9.23087618,3.55084971 9.18226631,3.62802045 9.08402321,3.68278678 C8.99345534,3.7335701 8.90800431,3.73854886 8.86860473,3.73854886 C7.71066647,3.73854886 6.55221652,3.73805098 5.39427826,3.73755311 C5.36715907,3.73755311 5.18653502,3.7335701 5.06066103,3.58868826 C4.9634413,3.47666622 4.95934783,3.35020579 4.95934783,3.31435874 L4.95934783,2.11646973 C4.95934783,1.88396176 5.15532237,1.69327536 5.39427826,1.69327536 C5.63272246,1.69327536 5.82920867,1.88396176 5.82920867,2.11646973 L5.82920867,2.89116437 L8.60355302,2.89116437 L6.5020716,0.846388741 L0.964128228,0.846388741 C0.956452985,0.846388741 0.926775381,0.846388741 0.901191239,0.868295273 C0.869978586,0.895180563 0.869978586,0.932521243 0.869978586,0.938495751 L0.869978586,10.9298659 C0.869978586,10.9358404 0.871001951,10.9716875 0.901702922,10.9980749 C0.926775381,11.0204793 0.955941303,11.021475 0.964128228,11.021475 L5.61379019,11.021475 Z" id="Shape"></path>
                </g>
            </g>
        </g>
    </g>
</svg>