<svg xmlns="http://www.w3.org/2000/svg" width="325.689" height="222.585" viewBox="0 0 325.689 222.585">
    <defs>
        <style>
            .cls-1{fill:#ebebeb}.cls-2{fill:#fafafa}.cls-3{fill:#e0e0e0}.cls-4{fill:#f5f5f5}.cls-5{fill:#b78876}.cls-6{fill:#263238}.cls-14,.cls-7{fill:#fff}.cls-8{fill:#a36957}.cls-9{fill:#32bc9b}.cls-12{opacity:.7}.cls-13,.cls-14{opacity:.5}
        </style>
    </defs>
    <g id="Group_181" transform="translate(-651.664 -322.232)">
        <g id="freepik--background-complete--inject-11" transform="translate(651.664 322.232)">
            <path id="Path_211" d="M651.8 102.55l-32.087.39.507 41.842 32.093.416z" class="cls-1" transform="translate(-326.621 -99.194)"/>
            <path id="Path_212" d="M650.437 104.89l-28.077.338.461 37.942 28.083.611z" class="cls-2" transform="translate(-327.549 -100.013)"/>
            <path id="Path_213" d="M648.383 115.321l-18.633-.481.318 26.523 18.627-.227z" class="cls-3" transform="translate(-330.136 -103.496)"/>
            <path id="Path_214" d="M630.068 141.363l18.465-13.85-18.783-12.673z" class="cls-4" transform="translate(-330.136 -103.496)"/>
            <path id="Rectangle_80" d="M0 0H17.288V37.013H0z" class="cls-4" transform="translate(2.418 14.255)"/>
            <path id="Rectangle_81" d="M0 0H21.246V35.759H0z" class="cls-4" transform="translate(20.427 53.849)"/>
            <path id="Rectangle_82" d="M0 0H17.288V35.759H0z" class="cls-4" transform="translate(2.418 53.849)"/>
            <path id="Rectangle_83" d="M0 0H18.672V35.759H0z" class="cls-4" transform="translate(65.148 53.849)"/>
            <path id="Rectangle_84" d="M0 0H21.246V37.013H0z" class="cls-4" transform="translate(20.427 14.255)"/>
            <path id="Rectangle_85" d="M0 0H18.672V37.013H0z" class="cls-4" transform="translate(65.148 14.255)"/>
            <path id="Rectangle_86" d="M0 0H17.288V32.223H0z" class="cls-4" transform="translate(2.418 90.251)"/>
            <path id="Rectangle_87" d="M0 0H21.246V32.223H0z" class="cls-4" transform="translate(20.427 90.251)"/>
            <path id="Rectangle_88" d="M0 0H18.672V32.223H0z" class="cls-4" transform="translate(65.148 90.251)"/>
            <path id="Rectangle_89" d="M0 0H20.174V37.013H0z" class="cls-4" transform="translate(44.26 14.255)"/>
            <path id="Rectangle_90" d="M0 0H20.174V32.223H0z" class="cls-4" transform="translate(44.26 90.251)"/>
            <path id="Rectangle_91" d="M0 0H20.174V35.759H0z" class="cls-4" transform="translate(44.26 53.849)"/>
            <path id="Rectangle_92" d="M0 0H17.288V37.013H0z" class="cls-4" transform="translate(188.412 14.255)"/>
            <path id="Rectangle_93" d="M0 0H21.246V35.759H0z" class="cls-4" transform="translate(206.422 53.849)"/>
            <path id="Rectangle_94" d="M0 0H17.288V35.759H0z" class="cls-4" transform="translate(188.412 53.849)"/>
            <path id="Rectangle_95" d="M0 0H18.672V35.759H0z" class="cls-4" transform="translate(251.143 53.849)"/>
            <path id="Rectangle_96" d="M0 0H21.246V37.013H0z" class="cls-4" transform="translate(206.422 14.255)"/>
            <path id="Rectangle_97" d="M0 0H18.672V37.013H0z" class="cls-4" transform="translate(251.143 14.255)"/>
            <path id="Rectangle_98" d="M0 0H17.288V32.223H0z" class="cls-4" transform="translate(188.412 90.251)"/>
            <path id="Rectangle_99" d="M0 0H21.246V32.223H0z" class="cls-4" transform="translate(206.422 90.251)"/>
            <path id="Rectangle_100" d="M0 0H18.672V32.223H0z" class="cls-4" transform="translate(251.143 90.251)"/>
            <path id="Rectangle_101" d="M0 0H20.174V37.013H0z" class="cls-4" transform="translate(230.255 14.255)"/>
            <path id="Rectangle_102" d="M0 0H20.174V32.223H0z" class="cls-4" transform="translate(230.255 90.251)"/>
            <path id="Rectangle_103" d="M0 0H20.174V35.759H0z" class="cls-4" transform="translate(230.255 53.849)"/>
            <path id="Rectangle_104" d="M0 0H38.534V48.647H0z" class="cls-1" transform="translate(115.02)"/>
            <path id="Rectangle_105" d="M0 0H5.342V1.3H0z" class="cls-3" transform="translate(131.616 40.629)"/>
            <path id="Path_223" d="M371.649 112.49l-7.1 1.04-2.649 6.67 4.445 5.628 7.1-1.04 2.645-6.668z" class="cls-3" transform="translate(-236.367 -102.674)"/>
            <path id="Path_224" d="M376.749 119.12l-7.1 1.04-2.649 6.668 4.452 5.628 7.1-1.04 2.652-6.668z" class="cls-2" transform="translate(-238.153 -104.995)"/>
            <path id="Path_240" d="M181.066 397.367h-7.149l-5.167-5.128.058-.052 5.128-5.141h.032l5.238-.4 5.778 4.549zm-7.058-.162h6.967l3.821-5.973-5.641-4.432-5.147.383-5.03 5.037z" class="cls-3" transform="translate(-168.75 -198.651)"/>
            <path id="Path_241" d="M176.888 397.289l-3.977-5.609.019-.045 2.476-4.712 1.527 1.495h2.418l1.293-1.9 2.938 4.64-.019.045-3.048 6.077-.149-.078 3.035-6.031-2.762-4.354-1.2 1.761h-2.574l-.019-.026-1.391-1.358-2.353 4.471 3.926 5.531z" class="cls-3" transform="translate(-170.206 -198.605)"/>
            <path id="Path_242" d="M168.93 394.716l-.02-.163 5.589-.773 5.875-.234 4.588-.007v.163l-4.588.007-5.862.234z" class="cls-3" transform="translate(-168.806 -201.063)"/>
            <path id="Path_243" d="M179.194 398.32l-1.794-5.869.006-.026.988-2.905.15.058-.975 2.873 1.781 5.817z" class="cls-3" transform="translate(-171.778 -199.656)"/>
            <path id="Path_244" d="M182.506 398.313l-.156-.046 1.761-6.044-1.482-2.639.143-.085 1.508 2.7-.007.032z" class="cls-3" transform="translate(-173.511 -199.649)"/>
            <path id="Path_245" d="M631.244 288.2c-4.205.65-6.083 5.849-5.713 10.074s2.106 8.378 1.644 12.609c-.592 5.368-4.654 9.911-5.121 15.293-.559 6.343 3.9 11.972 5.264 18.2.65 3.029.565 6.233 1.69 9.1a11.406 11.406 0 0 0 22.026-3.932c.1-4.874-2.911-9.463-2.548-14.3.273-3.594 2.379-6.993 1.95-10.568-.533-4.257-4.478-7.273-5.849-11.328s-.052-8.527-.533-12.791c-.865-7.643-5.1-13-12.765-12.348" class="cls-1" transform="translate(-327.425 -164.171)"/>
            <path id="Path_246" d="M603.155 345.17c-.715 7.084 2.418 15.416 6.064 21.532a33.8 33.8 0 0 0 15.858 13.765 2.278 2.278 0 0 0 2.281.065 2.254 2.254 0 0 0 .578-1.82 36.6 36.6 0 0 0-6.8-20.9c-4.049-5.849-7.87-9.3-17.977-12.647" class="cls-4" transform="translate(-320.79 -184.13)"/>
            <path id="Path_247" d="M638.952 402.158a2.056 2.056 0 0 1-.2-.4c-.136-.306-.305-.689-.507-1.163-.429-1.007-1.059-2.463-1.872-4.25a147.117 147.117 0 0 0-15.416-26.426c-1.164-1.586-2.119-2.853-2.788-3.717l-.767-1.014a1.551 1.551 0 0 1-.24-.37 2.923 2.923 0 0 1 .305.318l.819.968c.715.838 1.7 2.08 2.9 3.646a129.016 129.016 0 0 1 15.475 26.478c.78 1.807 1.378 3.282 1.755 4.316.176.481.325.871.436 1.183a1.831 1.831 0 0 1 .1.431z" class="cls-3" transform="translate(-325.728 -191.009)"/>
            <path id="Path_248" d="M643.664 318.38a4.43 4.43 0 0 1 .078.65c.032.481.084 1.131.143 1.95.11 1.735.267 4.179.461 7.149.384 6.064.917 14.435 1.566 23.677s1.3 17.606 1.761 23.664c.234 3 .416 5.44.553 7.149.052.819.1 1.475.13 1.95a4.581 4.581 0 0 1 0 .682 4.888 4.888 0 0 1-.1-.65c-.052-.481-.123-1.131-.208-1.95-.162-1.735-.4-4.166-.65-7.149-.546-6.051-1.228-14.415-1.878-23.664s-1.144-17.619-1.456-23.683c-.136-3-.253-5.453-.331-7.188 0-.819-.052-1.469-.072-1.95a4.949 4.949 0 0 1 .003-.637z" class="cls-3" transform="translate(-335.003 -174.751)"/>
            <path id="Path_249" d="M633.65 406.72h17.736v13a8.514 8.514 0 0 1-8.514 8.514 8.507 8.507 0 0 1-8.5-8.059z" class="cls-3" transform="translate(-331.501 -205.677)"/>
        </g>
        <g id="freepik--Character--inject-11" transform="translate(656.428 366.011)">
            <path id="Path_251" d="M271.6 196.686a5.2 5.2 0 0 0 5.518-5.03c.071-2.821.136-5.667.136-5.667s4.263-.455 4.549-4.679 0-13.986 0-13.986a14.746 14.746 0 0 0-14.877 1.124l-.65.455.5 22.747a5.2 5.2 0 0 0 4.824 5.036z" class="cls-5" transform="translate(-207.657 -165.122)"/>
            <path id="Path_252" d="M287.082 179.042a.617.617 0 1 1 .871 0 .618.618 0 0 1-.871 0z" class="cls-6" transform="translate(-214.876 -169.381)"/>
            <path id="Path_253" d="M288.548 178.125c-.071.071-.474-.273-1.053-.3s-1.02.247-1.085.169.045-.162.234-.3a1.45 1.45 0 0 1 .871-.227 1.41 1.41 0 0 1 .832.338c.175.151.234.288.201.32z" class="cls-6" transform="translate(-214.697 -169.198)"/>
            <path id="Path_254" d="M278.176 178.424a.424.424 0 1 1 0-.026z" class="cls-6" transform="translate(-211.5 -169.497)"/>
            <path id="Path_255" d="M278.773 178.445c-.071.072-.468-.273-1.053-.3s-1.02.247-1.079.169.039-.162.234-.3a1.43 1.43 0 0 1 1.7.11c.178.152.243.289.198.321z" class="cls-6" transform="translate(-211.278 -169.311)"/>
            <path id="Path_256" d="M283.148 182.982a2.821 2.821 0 0 1 .949-.149c.156 0 .273-.039.292-.124a.811.811 0 0 0-.091-.442c-.13-.39-.26-.786-.4-1.2a16.729 16.729 0 0 1-.845-3.165 15.911 15.911 0 0 1 1.163 3.061l.377 1.215a.988.988 0 0 1 .052.65.416.416 0 0 1-.273.234.986.986 0 0 1-.266 0 2.691 2.691 0 0 1-.955-.078z" class="cls-6" transform="translate(-213.528 -169.35)"/>
            <path id="Path_257" d="M280.2 186.57l2.821.975a1.618 1.618 0 0 1-1.95.546 1.225 1.225 0 0 1-.871-1.521z" class="cls-7" transform="translate(-212.514 -172.385)"/>
            <path id="Path_258" d="M280.25 195.759a9.872 9.872 0 0 1-5.44-1.839s1.157 3.113 5.394 2.938z" class="cls-8" transform="translate(-210.643 -174.959)"/>
            <path id="Path_259" d="M280.848 165.834a19.3 19.3 0 0 0-10.854-.565s-3.594 1.3-3.757 3.25a33.659 33.659 0 0 0 .1 4.77l.306 3.25h1.3l.13-4.406a6.146 6.146 0 0 0 2.489-4.426c1.209-.175 7.149-.949 11.231.383v-.942a1.436 1.436 0 0 0-.945-1.314z" class="cls-6" transform="translate(-207.628 -164.745)"/>
            <path id="Path_260" d="M265.638 178.07a.65.65 0 0 0-.65-.65c-.786 0-2.073.312-2.171 2.5a2.029 2.029 0 0 0 2.86 2.21c.013-.096-.013-2.851-.039-4.06z" class="cls-5" transform="translate(-206.443 -169.182)"/>
            <path id="Path_261" d="M265.465 181.486a1.022 1.022 0 0 1-.15.078.546.546 0 0 1-.4 0 1.346 1.346 0 0 1-.572-1.228 1.831 1.831 0 0 1 .188-.773.611.611 0 0 1 .422-.4.266.266 0 0 1 .312.162c.039.091 0 .149.032.156s.072-.052.052-.182a.35.35 0 0 0-.117-.2.4.4 0 0 0-.293-.1.78.78 0 0 0-.591.461 1.827 1.827 0 0 0-.221.858 1.41 1.41 0 0 0 .728 1.378.559.559 0 0 0 .5-.058c.104-.074.123-.146.11-.152z" class="cls-8" transform="translate(-206.901 -169.738)"/>
            <path id="Path_262" d="M339.875 181.549c-.845-.293-2.6 4.257-2.769 3.061s2.762-5.323 1.865-5.6c-1.17-.357-2.892 4.445-3.068 4.835s-.754.156-.578-.188c.254-.507 2.814-5.849 1.67-6.194-.65-.2-.89.975-.89.975s-2.028 5.16-2.561 4.972.546-3.25.988-4.27.136-1.612-.468-1.436c-.41.117-1.826 3.178-2.242 4.186s-1.488 3.789-2.073 1.982-1.716-2.97-2.242-3.074a.591.591 0 0 0-.461 1.02 6.771 6.771 0 0 1 .923 1.677 4.55 4.55 0 0 1 .358 1.495 15.81 15.81 0 0 1-.052 3.1l-10.432 18.78-16.743-6.317-2.3 9.567s21.993 9.69 23.365 8.943c3.106-1.69 12.868-29.013 12.868-29.013a64.713 64.713 0 0 0 4.03-5.784c1.371-2.477 1.157-2.606.812-2.717z" class="cls-5" transform="translate(-219.042 -169.191)"/>
            <path id="Path_263" d="M289.167 213.054c-4.653-2.32-7.949-3.692-10.5-5.284-7.91-4.946-9.963-3.8-11.816-4.01-1.547.494-3.828 1.43-4.7 1.6s-4.062-.864-6.122-1.475c-4.777.266-7.676 2.333-12.05 5.635l-8.884 7.045 10.516 10.75 3.25-2.47c.2 4.868.37 4.913.617 9.9l.208 19.225 29.721 1.3-1.872-19.205-.91-15.111 8.52 4.121 4.036-12.023" class="cls-9" transform="translate(-196.742 -178.403)"/>
            <path id="Path_264" d="M266.659 203.167l-.039-3.087s5.31.494 6.434 4.166z" class="cls-9" transform="translate(-207.776 -177.115)"/>
            <path id="Path_265" d="M281.371 202.87l-.474-2.99a5.2 5.2 0 0 0-4.407 4.3z" class="cls-9" transform="translate(-211.231 -177.045)"/>
            <path id="Path_266" d="M284.787 221.185a5.114 5.114 0 0 1 1.02-.084c.65 0 1.67-.078 2.879-.11h.143v.143c0 1.176.045 2.522.078 3.971v.085l-.071.052-.286.2-1.514 1.066-.091.065-.091-.059-2.093-1.3-.071-.045v-.078c0-1.2 0-2.19.039-2.866a6.388 6.388 0 0 1 .058-1.02 10.746 10.746 0 0 1 .1 1.092c0 .682.078 1.638.1 2.775l-.065-.123 2.112 1.3h-.2l1.514-1.072.279-.2-.072.136v-3.965l.143.136c-1.144 0-2.1 0-2.782-.039a10.731 10.731 0 0 1-1.129-.06z" class="cls-6" transform="translate(-214.102 -184.435)"/>
            <path id="Path_267" d="M288.61 222.6a5.914 5.914 0 0 1-1.95.162 5.75 5.75 0 0 1-1.95-.169 5.59 5.59 0 0 1 1.95-.169 5.518 5.518 0 0 1 1.95.176z" class="cls-6" transform="translate(-214.109 -184.931)"/>
            <path id="Path_268" d="M276.561 212.255a24.209 24.209 0 0 1-.072-5.765 25.133 25.133 0 0 1 .072 5.765z" class="cls-6" transform="translate(-211.172 -179.359)"/>
            <path id="Path_269" d="M278.1 207.637c0-.039.136-.117.305 0a.422.422 0 0 1 .136.364.442.442 0 0 1-.806.143.377.377 0 0 1 0-.383c.111-.195.28-.176.28-.137a1.454 1.454 0 0 0-.059.214c-.006.1.046.189.169.169s.137-.1.1-.214-.125-.111-.125-.156z" class="cls-6" transform="translate(-211.648 -179.739)"/>
            <path id="Path_270" d="M278.623 211.189c0-.046.169-.046.273.15a.416.416 0 0 1 0 .377.468.468 0 0 1-.832-.033.429.429 0 0 1 .032-.377c.124-.189.286-.169.286-.13a2.17 2.17 0 0 0-.065.221c-.013.11 0 .208.162.221s.182-.085.182-.208-.051-.175-.038-.221z" class="cls-6" transform="translate(-211.772 -180.991)"/>
            <path id="Path_271" d="M271.856 203.949a1.578 1.578 0 0 0-.279.032.754.754 0 0 0-.468.539 10.025 10.025 0 0 0-.2 1.2c-.078.481-.162.981-.247 1.5l-.046.273-.214-.149-.39-.273a20.251 20.251 0 0 1-2.379-2 4.261 4.261 0 0 1-.832-.981c.072-.071 1.449 1.3 3.406 2.7l.383.273-.26.117.279-1.521a7.5 7.5 0 0 1 .293-1.222.851.851 0 0 1 .65-.578c.22-.04.317.09.304.09z" class="cls-6" transform="translate(-207.839 -178.437)"/>
            <path id="Path_272" d="M282.112 203.772a8.606 8.606 0 0 1-2.333 3.438l-.084.071-.24.234-.039-.331a11.3 11.3 0 0 0-1.365-3.7 2.848 2.848 0 0 1 .747.929 7.149 7.149 0 0 1 .949 2.73l-.279-.1.071-.078a24.692 24.692 0 0 0 2.573-3.193z" class="cls-6" transform="translate(-211.777 -178.305)"/>
            <path id="Path_273" d="M298.97 230.22l2.788.143 6.278 2.151-.546 1.826z" opacity="0.3" transform="translate(-219.101 -187.666)"/>
            <g id="Group_153" opacity="0.3" transform="translate(52.098 46.427)">
                <path id="Path_274" d="M284.967 242.5a111.4 111.4 0 0 1-17.853.305 16.411 16.411 0 0 1-5.96-1.2 9.677 9.677 0 0 1-4.913-5.433l.533 8.28z" transform="translate(-256.24 -236.18)"/>
            </g>
            <g id="Group_154" class="cls-12" transform="translate(51.279 31.222)">
                <path id="Path_275" d="M256.858 215.459c-.078.052-.559-.5-1.079-1.241a3.951 3.951 0 0 1-.8-1.43c.078-.052.559.5 1.079 1.235a4 4 0 0 1 .8 1.436z" class="cls-7" transform="translate(-254.98 -212.785)"/>
            </g>
            <g id="Group_155" class="cls-12" transform="translate(47.048 37.257)">
                <path id="Path_276" d="M248.47 225.833a6.279 6.279 0 0 1 .65-1.95 6.56 6.56 0 0 1 .988-1.813 6.56 6.56 0 0 1-.65 1.95 6.46 6.46 0 0 1-.988 1.813z" class="cls-7" transform="translate(-248.47 -222.07)"/>
            </g>
            <g id="Group_156" class="cls-12" transform="translate(52.364 40.753)">
                <path id="Path_277" d="M259.139 230.29a5.494 5.494 0 0 1-1.371-1.3 5.628 5.628 0 0 1-1.118-1.54 10.574 10.574 0 0 1 2.489 2.853z" class="cls-7" transform="translate(-256.65 -227.45)"/>
            </g>
            <g id="Group_157" class="cls-12" transform="translate(56.638 36.176)">
                <path id="Path_278" d="M265.62 220.416c.059.071-.429.585-1.092 1.15a3.927 3.927 0 0 1-1.3.89c-.045-.071.436-.585 1.1-1.15s1.234-.962 1.292-.89z" class="cls-7" transform="translate(-263.225 -220.407)"/>
            </g>
            <g id="Group_158" class="cls-12" transform="translate(58.707 30.598)">
                <path id="Path_279" d="M268.093 214.122c-.065.065-.565-.351-1.027-.994a3.109 3.109 0 0 1-.65-1.3c.052-.052.448.468.9 1.085s.849 1.144.777 1.209z" class="cls-7" transform="translate(-266.409 -211.824)"/>
            </g>
            <g id="Group_159" class="cls-12" transform="translate(58.246 47.506)">
                <path id="Path_280" d="M269 237.84a8.121 8.121 0 0 1-1.6 1.228 8.21 8.21 0 0 1-1.7 1.092 4.872 4.872 0 0 1 1.5-1.365 4.98 4.98 0 0 1 1.8-.955z" class="cls-7" transform="translate(-265.7 -237.84)"/>
            </g>
            <g id="Group_160" class="cls-12" transform="translate(60.606 41.195)">
                <path id="Path_281" d="M271.676 230.275c-.065.065-.65-.358-1.3-.949s-1.1-1.124-1.04-1.189.65.351 1.3.942a3.982 3.982 0 0 1 1.04 1.196z" class="cls-7" transform="translate(-269.33 -228.13)"/>
            </g>
            <g id="Group_161" class="cls-12" transform="translate(66.448 35.645)">
                <path id="Path_282" d="M278.32 222.554a5.167 5.167 0 0 1 1.2-2.964 5.2 5.2 0 0 1-.52 1.51 5.393 5.393 0 0 1-.68 1.454z" class="cls-7" transform="translate(-278.32 -219.59)"/>
            </g>
            <g id="Group_162" class="cls-12" transform="translate(65.883 48.303)">
                <path id="Path_283" d="M279.575 241.512c-.052.072-.682-.332-1.3-1.027a2.932 2.932 0 0 1-.825-1.417c.085-.046.507.533 1.079 1.2s1.111 1.173 1.046 1.244z" class="cls-7" transform="translate(-277.45 -239.066)"/>
            </g>
            <g id="Group_163" class="cls-12" transform="translate(67.931 42.534)">
                <path id="Path_284" d="M283.09 232.608c-.065.072-.65-.416-1.358-1.085s-1.189-1.261-1.124-1.332a4.608 4.608 0 0 1 1.358 1.092c.682.662 1.189 1.26 1.124 1.325z" class="cls-7" transform="translate(-280.601 -230.19)"/>
            </g>
            <g id="Group_164" class="cls-12" transform="translate(73.727 49.384)">
                <path id="Path_285" d="M292.471 240.73a8.34 8.34 0 0 1-1.449 1.222 9.386 9.386 0 0 1-1.5 1.163 3.969 3.969 0 0 1 1.3-1.423 4.05 4.05 0 0 1 1.649-.962z" class="cls-7" transform="translate(-289.52 -240.73)"/>
            </g>
            <g id="Group_165" class="cls-12" transform="translate(73.48 44.302)">
                <path id="Path_286" d="M292.156 232.91c.058.078-.572.65-1.4 1.3a5.578 5.578 0 0 1-1.612 1.033 5.545 5.545 0 0 1 1.4-1.3 5.769 5.769 0 0 1 1.612-1.033z" class="cls-7" transform="translate(-289.14 -232.91)"/>
            </g>
            <g id="Group_166" class="cls-12" transform="translate(77.203 36.646)">
                <path id="Path_287" d="M295.324 224.6a3.745 3.745 0 0 1-.4-1.716 3.623 3.623 0 0 1 .13-1.755 6.456 6.456 0 0 1 .208 1.729 6.355 6.355 0 0 1 .065 1.742z" class="cls-7" transform="translate(-294.868 -221.13)"/>
            </g>
            <g id="Group_167" class="cls-12" transform="translate(72.215 38.69)">
                <path id="Path_288" d="M288.367 224.278c.084.046-.111.559-.429 1.15s-.65 1.033-.728.988.111-.559.429-1.15.637-1.033.728-.988z" class="cls-7" transform="translate(-287.193 -224.275)"/>
            </g>
            <g id="Group_168" class="cls-12" transform="translate(70.465 30.023)">
                <path id="Path_289" d="M287.7 213.091a10.983 10.983 0 0 1-3.2-2.151 5.642 5.642 0 0 1 1.69.936 5.753 5.753 0 0 1 1.51 1.215z" class="cls-7" transform="translate(-284.5 -210.94)"/>
            </g>
            <g id="Group_169" class="cls-12" transform="translate(74.65 28.002)">
                <path id="Path_290" d="M294.229 209.624a3.639 3.639 0 0 1-1.807-.6 3.7 3.7 0 0 1-1.482-1.2 65470.513 65470.513 0 0 0 3.289 1.794z" class="cls-7" transform="translate(-290.94 -207.83)"/>
            </g>
            <g id="Group_170" class="cls-12" transform="translate(78.449 32.351)">
                <path id="Path_291" d="M299.641 214.546a6.936 6.936 0 0 1-1.417.591 6.5 6.5 0 0 1-1.436.552c-.052-.071.494-.546 1.3-.871a2.547 2.547 0 0 1 1.553-.272z" class="cls-7" transform="translate(-296.785 -214.521)"/>
            </g>
            <g id="Group_171" class="cls-12" transform="translate(83.522 35.222)">
                <path id="Path_292" d="M304.59 222.944a5.164 5.164 0 0 1 .539-2.112 5.37 5.37 0 0 1 1.085-1.891 10.8 10.8 0 0 1-.767 2.021 11.234 11.234 0 0 1-.857 1.982z" class="cls-7" transform="translate(-304.59 -218.94)"/>
            </g>
            <g id="Group_172" class="cls-12" transform="translate(87.633 38.42)">
                <path id="Path_293" d="M311.387 227.428a4.8 4.8 0 0 1-.371-1.768 4.94 4.94 0 0 1-.032-1.8 4.743 4.743 0 0 1 .37 1.761 4.992 4.992 0 0 1 .033 1.807z" class="cls-7" transform="translate(-310.916 -223.86)"/>
            </g>
            <g id="Group_173" class="cls-12" transform="translate(42.109 36.178)">
                <path id="Path_294" d="M241.559 220.41a3.679 3.679 0 0 1-.169 1.534 3.555 3.555 0 0 1-.5 1.456 3.648 3.648 0 0 1 .169-1.527 3.608 3.608 0 0 1 .5-1.463z" class="cls-7" transform="translate(-240.871 -220.41)"/>
            </g>
            <g id="Group_174" class="cls-12" transform="translate(46.45 44.939)">
                <path id="Path_295" d="M250.709 234.839a5.148 5.148 0 0 1-3.159-.949 5.94 5.94 0 0 1 1.6.409 6.024 6.024 0 0 1 1.559.54z" class="cls-7" transform="translate(-247.55 -233.89)"/>
            </g>
            <g id="Group_175" class="cls-12" transform="translate(55.172 27.567)">
                <path id="Path_296" d="M263.212 207.186c.033.091-.481.344-1.086.7a4.557 4.557 0 0 1-1.15.6c-.065-.045.338-.526.975-.9s1.235-.486 1.261-.4z" class="cls-7" transform="translate(-260.969 -207.161)"/>
            </g>
            <g id="Group_176" class="cls-12" transform="translate(46.527 33.419)">
                <path id="Path_297" d="M250.425 216.825a3.133 3.133 0 0 1-1.417-.156c-.76-.175-1.365-.39-1.339-.481a3.133 3.133 0 0 1 1.417.156c.748.175 1.398.364 1.339.481z" class="cls-7" transform="translate(-247.669 -216.165)"/>
            </g>
            <g id="Group_177" class="cls-12" transform="translate(59.841 24.904)">
                <path id="Path_298" d="M269.828 204.413c-.033.084-.533-.052-1.014-.442s-.715-.858-.65-.9.41.28.858.65.845.601.806.692z" class="cls-7" transform="translate(-268.154 -203.063)"/>
            </g>
            <g id="Group_178" class="cls-12" transform="translate(67.984 24.436)">
                <path id="Path_299" d="M282.04 202.354c.065.065-.182.422-.552.793s-.728.611-.793.546.182-.416.552-.786.728-.618.793-.553z" class="cls-7" transform="translate(-280.684 -202.344)"/>
            </g>
            <path id="Path_300" d="M212.086 407.591l-4.108 2.379s3.022 9.872 1.17 8.117c-1.657-1.566-7.851-13.434-9.313-16.365l-.325-.65 6.993-3.8z" class="cls-9" transform="translate(-184.282 -246.147)"/>
            <g id="Group_179" class="cls-13" transform="translate(15.384 153.203)">
                <path id="Path_301" d="M201.81 405.871a4.127 4.127 0 0 0 1.443-2.567 4 4 0 0 0-.65-2.834l-2.853 1.644z" class="cls-7" transform="translate(-199.75 -400.47)"/>
            </g>
            <path id="Path_302" d="M209.3 416.864s.864 3.568.143 3.47-7.429-11.848-9.937-17.288l.241-.117 7.708 13.778s1.472-.428 1.845.157z" class="cls-14" transform="translate(-184.282 -248.128)"/>
            <path id="Path_303" d="M199.75 402.68a1.039 1.039 0 0 0 .085.182l.253.526.988 1.95c.845 1.618 2.041 3.828 3.419 6.239s2.665 4.549 3.627 6.129l1.144 1.826.318.487.117.169a.74.74 0 0 0-.091-.182l-.3-.507-1.1-1.852c-.936-1.56-2.21-3.724-3.588-6.135s-2.6-4.621-3.451-6.22l-1.027-1.9c-.1-.188-.195-.357-.286-.513s-.102-.206-.108-.199z" class="cls-6" transform="translate(-184.366 -248.04)"/>
            <path id="Path_304" d="M211.49 424.1a5.2 5.2 0 0 1 1.092-.156 4.79 4.79 0 0 1 1.079.228 1.56 1.56 0 0 0-1.072-.371 1.605 1.605 0 0 0-1.099.299z" class="cls-6" transform="translate(-188.476 -255.43)"/>
            <path id="Path_305" d="M211.19 418.207a2.437 2.437 0 0 0 1.17.052 1.255 1.255 0 0 0-.578-.1 1.3 1.3 0 0 0-.592.048z" class="cls-6" transform="translate(-188.371 -253.455)"/>
            <path id="Path_306" d="M211.14 416.561c0 .039.188.137.448.221s.481.13.494.091-.188-.136-.448-.227-.481-.124-.494-.085z" class="cls-6" transform="translate(-188.354 -252.895)"/>
            <path id="Path_307" d="M212.17 414.9a1.41 1.41 0 0 0 .24.578c.163.3.331.527.364.507a1.412 1.412 0 0 0-.24-.578c-.163-.299-.325-.52-.364-.507z" class="cls-6" transform="translate(-188.714 -252.318)"/>
            <path id="Path_308" d="M213.068 414a1.189 1.189 0 0 0 .169.7c.169.364.4.6.435.572a3.762 3.762 0 0 0-.305-.65 4.322 4.322 0 0 0-.3-.624z" class="cls-6" transform="translate(-189.028 -252.004)"/>
            <path id="Path_309" d="M212.813 418a2.326 2.326 0 0 0 .383.65 4.609 4.609 0 0 0 .559.617 2 2 0 0 0 .4.305.383.383 0 0 0 .3.045.286.286 0 0 0 .2-.247 1.4 1.4 0 0 0-1.209-1.3 1.345 1.345 0 0 0-.565.039.543.543 0 0 0-.188.084 2.093 2.093 0 0 1 .741 0 1.37 1.37 0 0 1 .689.351 1.2 1.2 0 0 1 .4.819c0 .149-.169.182-.305.1a3.069 3.069 0 0 1-.37-.279 5.205 5.205 0 0 1-.566-.585c-.3-.365-.449-.599-.469-.599z" class="cls-6" transform="translate(-188.896 -253.404)"/>
            <path id="Path_310" d="M212.968 417.489a.774.774 0 0 0 .507-.188 1.171 1.171 0 0 0 .377-.455.78.78 0 0 0 0-.741.305.305 0 0 0-.422 0 .835.835 0 0 0-.234.279 2.4 2.4 0 0 0-.221.546 1.032 1.032 0 0 0-.052.526s.046-.195.149-.5a2.479 2.479 0 0 1 .24-.5c.084-.169.3-.377.429-.228a.7.7 0 0 1-.032.6 1.264 1.264 0 0 1-.325.429 2.517 2.517 0 0 1-.416.232z" class="cls-6" transform="translate(-188.973 -252.711)"/>
            <path id="Path_311" d="M203.808 400.53a4.581 4.581 0 0 1 .4.773 3.809 3.809 0 0 1 .266 2.047 3.9 3.9 0 0 1-.877 1.878 5.507 5.507 0 0 1-.65.611.688.688 0 0 0 .208-.117 2.809 2.809 0 0 0 .494-.429 3.717 3.717 0 0 0 .942-1.917 3.672 3.672 0 0 0-.312-2.112 3.25 3.25 0 0 0-.338-.559c-.068-.123-.127-.182-.133-.175z" class="cls-6" transform="translate(-185.487 -247.288)"/>
            <path id="Path_312" d="M205.6 409.89a6.959 6.959 0 0 0 .708 1.586 6.365 6.365 0 0 0 .981 1.436c.032 0-.39-.65-.858-1.5s-.792-1.542-.831-1.522z" class="cls-6" transform="translate(-186.414 -250.565)"/>
            <path id="Path_313" d="M203.594 406.78c-.039 0-.111.136-.228.292s-.228.273-.208.305.195-.039.325-.221.15-.37.111-.376z" class="cls-6" transform="translate(-185.559 -249.476)"/>
            <path id="Path_314" d="M204.515 404.78c-.039 0-.1.117-.156.286s-.052.312 0 .325.1-.117.156-.286.039-.312 0-.325z" class="cls-6" transform="translate(-185.966 -248.776)"/>
            <path id="Path_315" d="M204.326 402.727c-.032 0 .052.162.084.344s0 .338.052.351.13-.156.084-.377-.194-.35-.22-.318z" class="cls-6" transform="translate(-185.966 -248.056)"/>
            <path id="Path_316" d="M203.973 401.36c-.039 0-.059.091-.046.195s.059.188.1.182.058-.1.046-.2a.28.28 0 0 0-.1-.177z" class="cls-6" transform="translate(-185.827 -247.579)"/>
            <path id="Path_317" d="M315.95 426.835l-.149 4.751s9.983 2.645 7.513 3.289c-2.21.585-15.553-.436-18.809-.741l-.734-.072.468-7.942z" class="cls-9" transform="translate(-220.781 -256.247)"/>
            <g id="Group_180" class="cls-13" transform="translate(83.015 174.342)">
                <path id="Path_318" d="M308.08 436.534a4.1 4.1 0 0 0-1.417-2.6 3.979 3.979 0 0 0-2.73-.936l-.123 3.308z" class="cls-7" transform="translate(-303.81 -432.995)"/>
            </g>
            <path id="Path_319" d="M320.675 436.79s3.483 1.15 3.022 1.709-13.98.046-19.927-.7v-.267l15.767.741s.442-1.483 1.138-1.483z" class="cls-14" transform="translate(-220.781 -259.982)"/>
            <path id="Path_320" d="M303.53 437.91h.2l.585.052 2.145.176c1.82.136 4.329.292 7.1.4s5.3.149 7.117.156h2.743a.7.7 0 0 0 .2 0 .714.714 0 0 0-.2 0h-.591l-2.151-.039c-1.82-.033-4.335-.091-7.11-.195s-5.284-.247-7.1-.358l-2.151-.13h-.585a.793.793 0 0 0-.202-.062z" class="cls-6" transform="translate(-220.697 -260.374)"/>
            <path id="Path_321" d="M328.057 438.377a5.018 5.018 0 0 1 .442-1.007 4.9 4.9 0 0 1 .767-.8 1.632 1.632 0 0 0-.891.715 1.586 1.586 0 0 0-.318 1.092z" class="cls-6" transform="translate(-229.282 -259.905)"/>
            <path id="Path_322" d="M322.787 435.9a2.431 2.431 0 0 0 .39-.442c.182-.267.306-.5.273-.52s-.208.175-.39.442-.305.495-.273.52z" class="cls-6" transform="translate(-227.437 -259.334)"/>
            <path id="Path_323" d="M321.338 435.234c0 .033.221-.085.429-.26s.364-.345.338-.377-.221.091-.429.266-.364.345-.338.371z" class="cls-6" transform="translate(-226.931 -259.212)"/>
            <path id="Path_324" d="M320.47 433.8a2.857 2.857 0 0 0 1.241.058 1.452 1.452 0 0 0-.617-.1 1.476 1.476 0 0 0-.624.042z" class="cls-6" transform="translate(-226.628 -258.913)"/>
            <path id="Path_325" d="M320.2 432.6a1.228 1.228 0 0 0 .682.228 1.3 1.3 0 0 0 .715-.065 3.369 3.369 0 0 0-.7-.078 4.14 4.14 0 0 0-.697-.085z" class="cls-6" transform="translate(-226.533 -258.515)"/>
            <path id="Path_326" d="M323.47 434.3a2.029 2.029 0 0 0 .76 0 4.349 4.349 0 0 0 .812-.149 2.09 2.09 0 0 0 .475-.169.417.417 0 0 0 .195-.234.286.286 0 0 0-.1-.305 1.41 1.41 0 0 0-2.008.838.507.507 0 0 0 0 .208 2.136 2.136 0 0 1 .371-.65 1.338 1.338 0 0 1 .65-.4 1.163 1.163 0 0 1 .9.1c.117.091.065.234-.071.305a2.08 2.08 0 0 1-.435.169 5.965 5.965 0 0 1-.793.176c-.47.098-.756.091-.756.111z" class="cls-6" transform="translate(-227.678 -258.753)"/>
            <path id="Path_327" d="M323.243 434.111a.761.761 0 0 0 .1-.526 1.3 1.3 0 0 0-.182-.559.773.773 0 0 0-.65-.416.312.312 0 0 0-.247.345.865.865 0 0 0 .117.344 2.185 2.185 0 0 0 .344.474 1.144 1.144 0 0 0 .423.325 4.148 4.148 0 0 1-.344-.39 2.78 2.78 0 0 1-.305-.468c-.1-.169-.156-.461.033-.487s.383.188.494.344a1.352 1.352 0 0 1 .2.5 3.029 3.029 0 0 1 .017.514z" class="cls-6" transform="translate(-227.257 -258.519)"/>
            <path id="Path_328" d="M304.09 432.907a7.981 7.981 0 0 1 .871.065 3.834 3.834 0 0 1 1.885.858 3.9 3.9 0 0 1 1.124 1.729c.162.52.169.858.195.858a.866.866 0 0 0 0-.24 3.045 3.045 0 0 0-.1-.65 3.653 3.653 0 0 0-1.131-1.813 3.7 3.7 0 0 0-1.95-.851 3.175 3.175 0 0 0-.65 0c-.16.011-.244.031-.244.044z" class="cls-6" transform="translate(-220.893 -258.601)"/>
            <path id="Path_329" d="M312.74 436.752a7.15 7.15 0 0 0 1.722.234 6.5 6.5 0 0 0 1.742-.071c0-.039-.78 0-1.735-.071a12.412 12.412 0 0 0-1.729-.092z" class="cls-6" transform="translate(-223.922 -259.963)"/>
            <path id="Path_330" d="M309.17 436.608a2.738 2.738 0 0 0 .13.351c.072.182.111.338.149.338s.072-.188 0-.4-.249-.315-.279-.289z" class="cls-6" transform="translate(-222.672 -259.917)"/>
            <path id="Path_331" d="M307.886 434.887c-.033 0 .039.15.162.279s.234.215.266.182-.045-.15-.162-.28-.24-.207-.266-.181z" class="cls-6" transform="translate(-222.22 -259.314)"/>
            <path id="Path_332" d="M306 434.016c0 .039.169.045.338.111s.293.169.325.143-.058-.195-.273-.279-.39-.008-.39.025z" class="cls-6" transform="translate(-221.562 -258.988)"/>
            <path id="Path_333" d="M304.64 433.616c0 .039.046.1.143.143s.189.045.2 0-.046-.1-.143-.143-.187-.033-.2 0z" class="cls-6" transform="translate(-221.086 -258.861)"/>
            <path id="Path_334" d="M246.249 298.47s-.858 22.65-4.328 34.394-12.791 14.6-18.848 18.38c-5.758 3.607-18.633 10.444-18.633 10.444l7.266 12.589s35.531-15.039 41.868-28.5c4.861-10.34 10.184-29.377 10.184-29.377z" class="cls-6" transform="translate(-186.008 -211.559)"/>
            <path id="Path_335" d="M284.683 282.222s14.987 31.391 18.991 39.912a6.006 6.006 0 0 1 .565 2.853l-2.645 52.91-15.2-.767 1.644-51.025L262.28 293.8a23.65 23.65 0 0 1-4.621-9.372 15.063 15.063 0 0 1-.429-3.428l27.472 1.222" class="cls-6" transform="translate(-204.489 -205.443)"/>
            <path id="Path_336" d="M319.42 339.561l-136.458 9.983-6.642-100.082 135.431-9.482z" class="cls-7" transform="translate(-176.164 -191.083)"/>
            <path id="Path_337" d="M319.336 339.488s-.058-.617-.156-1.813-.234-2.97-.422-5.277c-.364-4.627-.9-11.419-1.579-20.1-1.358-17.34-3.3-42.245-5.648-72.382l.143.123-135.424 9.515.156-.182a3.587 3.587 0 0 0 .052.734l6.577 99.354-.162-.143 98.463-7.149 28-2.008 7.435-.526 1.911-.13.65-.039a5.613 5.613 0 0 0-.65.059l-1.9.15-7.4.559-27.947 2.086-98.548 7.305h-.15v-.156c-1.989-29.935-4.237-63.692-6.61-99.354a3.344 3.344 0 0 0-.052-.728v-.169h.169l135.424-9.45h.136v.136c2.294 30.208 4.192 55.12 5.511 72.486.65 8.663 1.163 15.442 1.508 20.063.169 2.307.305 4.069.39 5.258s.123 1.778.123 1.778z" class="cls-6" transform="translate(-176.08 -191.01)"/>
            <path id="Path_338" d="M345.9 263.29c.279 0 1.475 17.19 2.665 38.43s1.95 38.476 1.651 38.495-1.469-17.19-2.665-38.436-1.932-38.479-1.651-38.489z" class="cls-6" transform="translate(-235.509 -199.243)"/>
            <path id="Path_339" d="M327.248 263c.286 0 1.475 17.2 2.671 38.436s1.95 38.475 1.651 38.488-1.475-17.19-2.665-38.436S326.969 263 327.248 263z" class="cls-6" transform="translate(-228.98 -199.142)"/>
            <path id="Path_340" d="M270.168 263.8c.279 0 1.475 17.19 2.671 38.43s1.95 38.482 1.651 38.495-1.475-17.19-2.665-38.436-1.936-38.476-1.657-38.489z" class="cls-6" transform="translate(-208.998 -199.422)"/>
            <path id="Path_341" d="M288.208 263c.279 0 1.475 17.2 2.665 38.436s1.95 38.475 1.651 38.495-1.469-17.19-2.665-38.436-1.93-38.456-1.651-38.495z" class="cls-6" transform="translate(-215.313 -199.142)"/>
            <path id="Path_342" d="M306.238 262.27c.279 0 1.475 17.19 2.665 38.43s1.95 38.482 1.657 38.495-1.475-17.19-2.671-38.437-1.93-38.475-1.651-38.488z" class="cls-6" transform="translate(-221.625 -198.886)"/>
            <path id="Path_343" d="M250.118 266.45c.279 0 1.475 17.191 2.665 38.43s1.95 38.475 1.651 38.495-1.469-17.19-2.665-38.436-1.93-38.476-1.651-38.489z" class="cls-6" transform="translate(-201.978 -200.35)"/>
            <path id="Path_344" d="M230.353 267.63c.279 0 1.475 17.19 2.665 38.43s1.937 38.5 1.638 38.5-1.475-17.19-2.671-38.436-1.879-38.481-1.632-38.494z" class="cls-6" transform="translate(-195.062 -200.763)"/>
            <path id="Path_345" d="M210.578 268.81c.286 0 1.475 17.2 2.671 38.436s1.95 38.475 1.651 38.495-1.469-17.19-2.665-38.462-1.935-38.45-1.657-38.469z" class="cls-6" transform="translate(-188.136 -201.176)"/>
            <path id="Path_346" d="M229.693 224.89s-15.143 11.12-12.277 20c3.445 10.659 27.661 19.192 27.661 19.192 1.9 1.579 3.978 3.25 5.2 4.043 2.6 1.67 2.691 1.417 2.762 1.046.182-.981-4.5-3.126-3.36-3.328s5.57 3.38 5.726 2.333c.2-1.365-4.725-3.5-5.134-3.718s-.247-.89.117-.65c.52.312 6.07 3.438 6.278 2.106.117-.734-1.066-1.066-1.066-1.066s-5.316-2.5-5.2-3.126 3.25.721 4.309 1.261 1.6.2 1.352-.507c-.169-.481-3.354-2.223-4.394-2.73s-3.9-1.846-2.21-2.489a4.219 4.219 0 0 0 2.73-2.548c.039-.6-.689-1.02-1.066-.565a5.251 5.251 0 0 1-1.527 1.04 3.394 3.394 0 0 1-1.235.364c-2.255-1.384-18.38-11.367-18.445-13.141-.071-1.911 8.124-8.969 8.124-8.969z" class="cls-5" transform="translate(-190.424 -185.8)"/>
            <path id="Path_347" d="M278.618 175.188c0 .1-.429.078-.9.149s-.871.189-.917.1.319-.364.864-.442.979.105.953.193z" class="cls-6" transform="translate(-211.338 -168.328)"/>
            <path id="Path_348" d="M287.876 174.565c-.065.078-.37-.084-.773-.149s-.741-.039-.773-.13.338-.3.838-.208.773.422.708.487z" class="cls-6" transform="translate(-214.675 -168.004)"/>
        </g>
        <g id="freepik--Files--inject-11" transform="translate(777.658 357.169)">
            <path id="Path_349" d="M391.7 169.1c-5.043 25.029-23.4 119.131-28.278 144.244a6.363 6.363 0 0 0 4.978 7.448l103.019 20.876a6.363 6.363 0 0 0 7.507-5.024l14.1-72.759 8.794 1.358a4.043 4.043 0 0 0 4.588-3.25l10.724-58.759a4.036 4.036 0 0 0-3.25-4.7l-7.9-1.482 1.033-5.68a6.324 6.324 0 0 0-5.015-7.338L399.081 164.14a6.33 6.33 0 0 0-7.381 4.96z" class="cls-6" transform="translate(-362.855 -155.652)"/>
            <path id="Path_350" d="M400.467 175.55L366.45 319.5l105.69 24.223 33.309-142.937z" class="cls-3" transform="translate(-363.954 -159.685)"/>
            <path id="Path_351" d="M386.833 167.32L362.61 313.234l107.09 17.035 23.579-144.855z" class="cls-1" transform="translate(-362.61 -156.804)"/>
            <path id="Path_352" d="M373.277 179.07l-4.517 147.844 108.4 2.587 4.03-146.713z" class="cls-7" transform="translate(-364.763 -160.918)"/>
            <path id="Path_353" d="M373.206 179.07l107.887 3.581h.182v.136c-1.124 41.218-2.509 91.931-4 146.707v.169h-.962l-107.614-2.6h-.156v-.156c2.769-87.441 4.634-146.48 4.679-147.838-.059 1.358-1.781 60.4-4.38 147.851l-.15-.156 107.608 2.549h.793l-.176.163c1.521-54.775 2.925-105.489 4.062-146.713l.137.143z" class="cls-6" transform="translate(-364.686 -160.918)"/>
            <path id="Path_354" d="M473.5 227.017c0 .286-18.653.253-41.647-.058s-41.641-.793-41.641-1.072 18.653-.253 41.654.059 41.634.791 41.634 1.071z" class="cls-6" transform="translate(-372.272 -177.239)"/>
            <path id="Path_355" d="M474.7 247.143c0 .28-18.646.254-41.647-.058s-41.641-.8-41.634-1.079 18.646-.253 41.647.059 41.642.799 41.634 1.078z" class="cls-6" transform="translate(-372.696 -184.283)"/>
            <path id="Path_356" d="M476.418 308.832c0 .279-18.653.254-41.647-.058s-41.647-.793-41.64-1.079 18.646-.254 41.654.065 41.633.792 41.633 1.072z" class="cls-6" transform="translate(-373.294 -205.878)"/>
            <path id="Path_357" d="M476.418 289.283c0 .279-18.653.253-41.647-.065s-41.647-.793-41.64-1.072 18.646-.253 41.654.059 41.633.825 41.633 1.078z" class="cls-6" transform="translate(-373.294 -199.035)"/>
            <path id="Path_358" d="M476.418 269.806c0 .279-18.653.253-41.647-.058s-41.647-.793-41.64-1.072 18.646-.253 41.654.059 41.633.792 41.633 1.071z" class="cls-6" transform="translate(-373.294 -192.219)"/>
            <path id="Path_359" d="M474.478 330.616c0 .28-18.653.254-41.647-.058s-41.641-.793-41.641-1.072 18.653-.254 41.653.058 41.641.793 41.635 1.072z" class="cls-6" transform="translate(-372.615 -213.507)"/>
            <path id="Path_360" d="M474.138 352.023c0 .28-18.653.254-41.647-.058s-41.647-.8-41.641-1.079 18.646-.253 41.654.059 41.634.799 41.634 1.078z" class="cls-6" transform="translate(-372.496 -220.999)"/>
            <path id="Path_361" d="M473.738 373.427c0 .28-18.653.254-41.654-.058s-41.641-.793-41.634-1.072 18.646-.254 41.654.058 41.634.792 41.634 1.072z" class="cls-6" transform="translate(-372.356 -228.494)"/>
            <ellipse id="Ellipse_37" cx="26.361" cy="26.387" class="cls-9" rx="26.361" ry="26.387" transform="translate(88.714)"/>
            <circle id="Ellipse_38" cx="26.387" cy="26.387" r="26.387" opacity="0.5" transform="translate(88.714)"/>
            <ellipse id="Ellipse_39" cx="26.361" cy="26.387" class="cls-9" rx="26.361" ry="26.387" transform="translate(85.816)"/>
            <rect id="Rectangle_113" width="3.081" height="31.099" class="cls-2" rx="1.54" transform="translate(110.643 10.841)"/>
            <rect id="Rectangle_114" width="3.081" height="31.079" class="cls-2" rx="1.54" transform="rotate(-90 62.288 -34.355)"/>
        </g>
    </g>
</svg>
