<svg xmlns="http://www.w3.org/2000/svg" width="263.315" height="271.088" viewBox="0 0 263.315 271.088">
    <defs>
        <style>
            .cls-1{fill:#ccc}.cls-2{fill:#fff}
        </style>
    </defs>
    <g id="Group_1192" transform="translate(-179.736)">
        <g id="Group_28">
            <path id="Path_410" d="M681.507 197.345a5.982 5.982 0 0 0-5.468-3.659H566.878a5.92 5.92 0 0 0-5.917 5.917V337.7a5.92 5.92 0 0 0 5.917 5.917h109.161a5.925 5.925 0 0 0 5.917-5.917V199.6a5.809 5.809 0 0 0-.449-2.255zm-.865 140.355a4.609 4.609 0 0 1-4.6 4.6H566.878a4.6 4.6 0 0 1-4.6-4.6V199.6a4.609 4.609 0 0 1 4.6-4.6h109.161a4.626 4.626 0 0 1 4.273 2.9 5.138 5.138 0 0 1 .173.519 4.561 4.561 0 0 1 .158 1.188z" class="cls-1" transform="translate(-381.224 -193.686)"/>
            <path id="Path_411" d="M658.724 226.292h-32.88a2.631 2.631 0 0 1 0-5.261h32.879a2.631 2.631 0 1 1 0 5.262z" class="cls-1" transform="translate(-381.224 -193.686)"/>
            <path id="Path_412" d="M658.724 240.1h-32.88a2.631 2.631 0 0 1 0-5.261h32.879a2.631 2.631 0 1 1 0 5.261z" class="cls-1" transform="translate(-381.224 -193.686)"/>
            <path id="Path_413" d="M608.978 247.965h-24.033a2.962 2.962 0 0 1-2.959-2.959v-28.355a2.962 2.962 0 0 1 2.959-2.959h24.033a2.963 2.963 0 0 1 2.959 2.959v28.355a2.962 2.962 0 0 1-2.959 2.959z" class="cls-1" transform="translate(-381.224 -193.686)"/>
            <path id="Path_414" d="M658.495 268.378h-74.307a2.63 2.63 0 0 1 0-5.261h74.307a2.63 2.63 0 0 1 0 5.261z" class="cls-1" transform="translate(-381.224 -193.686)"/>
            <path id="Path_415" d="M658.495 282.192h-74.307a2.63 2.63 0 0 1 0-5.261h74.307a2.63 2.63 0 0 1 0 5.261z" class="cls-1" transform="translate(-381.224 -193.686)"/>
            <path id="Path_416" d="M658.495 296h-74.307a2.63 2.63 0 0 1 0-5.261h74.307a2.63 2.63 0 0 1 0 5.261z" class="cls-1" transform="translate(-381.224 -193.686)"/>
            <path id="Path_417" d="M658.495 309.81h-74.307a2.63 2.63 0 1 1 0-5.261h74.307a2.63 2.63 0 1 1 0 5.261z" class="cls-1" transform="translate(-381.224 -193.686)"/>
            <path id="Path_418" d="M658.495 323.616h-74.307a2.63 2.63 0 0 1 0-5.261h74.307a2.63 2.63 0 0 1 0 5.261z" class="cls-1" transform="translate(-381.224 -193.686)"/>
        </g>
        <path id="Path_336" d="M747.435 278.883a7.6 7.6 0 0 0-6.95-4.65H601.76a7.524 7.524 0 0 0-7.52 7.52v175.5a7.524 7.524 0 0 0 7.52 7.52h138.73a7.53 7.53 0 0 0 7.52-7.52v-175.5a7.384 7.384 0 0 0-.57-2.87z" class="cls-2" transform="translate(-381.224 -193.686)"/>
        <path id="Path_384" d="M736.139 454.92H606.494c-1.868 0-3.331-2.046-3.331-4.653v-162.8c0-2.609 1.466-4.653 3.331-4.653h129.645c1.869 0 3.332 2.046 3.332 4.653v162.8c-.002 2.609-1.471 4.653-3.332 4.653z" class="cls-2" transform="translate(-381.224 -193.686)"/>
        <path id="Path_336-2" d="M747.435 278.883a7.6 7.6 0 0 0-6.95-4.65H601.76a7.524 7.524 0 0 0-7.52 7.52v175.5a7.524 7.524 0 0 0 7.52 7.52h138.73a7.53 7.53 0 0 0 7.52-7.52v-175.5a7.384 7.384 0 0 0-.57-2.87zm-1.1 178.37a5.857 5.857 0 0 1-5.85 5.85H601.76a5.851 5.851 0 0 1-5.85-5.847v-175.5a5.858 5.858 0 0 1 5.85-5.85h138.73a5.879 5.879 0 0 1 5.43 3.68 6.469 6.469 0 0 1 .22.66 5.8 5.8 0 0 1 .2 1.51z" class="cls-1" transform="translate(-381.224 -193.686)"/>
        <path id="Path_337" d="M718.485 315.668H676.7a3.343 3.343 0 0 1 0-6.686h41.786a3.343 3.343 0 1 1 0 6.686z" class="cls-1" transform="translate(-381.224 -193.686)"/>
        <path id="Path_338" d="M718.485 333.218H676.7a3.343 3.343 0 0 1 0-6.686h41.786a3.343 3.343 0 0 1 0 6.686z" class="cls-1" transform="translate(-381.224 -193.686)"/>
        <path id="Path_339" d="M655.259 343.211h-30.537a3.765 3.765 0 0 1-3.761-3.761v-36.036a3.765 3.765 0 0 1 3.761-3.761h30.537a3.765 3.765 0 0 1 3.761 3.761v36.036a3.765 3.765 0 0 1-3.761 3.761z" class="cls-1" transform="translate(-381.224 -193.686)"/>
        <path id="Path_340" d="M718.195 369.154h-94.436a3.343 3.343 0 0 1 0-6.686h94.436a3.343 3.343 0 0 1 0 6.686z" class="cls-1" transform="translate(-381.224 -193.686)"/>
        <path id="Path_341" d="M718.195 386.7h-94.436a3.343 3.343 0 1 1-.019-6.686h94.455a3.343 3.343 0 0 1 0 6.686z" class="cls-1" transform="translate(-381.224 -193.686)"/>
        <path id="Path_342" d="M718.195 404.254h-94.436a3.343 3.343 0 0 1 0-6.686h94.436a3.343 3.343 0 1 1 .018 6.686z" class="cls-1" transform="translate(-381.224 -193.686)"/>
        <path id="Path_343" d="M718.195 421.8h-94.436a3.343 3.343 0 1 1-.019-6.686h94.455a3.343 3.343 0 0 1 0 6.686z" class="cls-1" transform="translate(-381.224 -193.686)"/>
        <path id="Path_344" d="M718.195 439.354h-94.436a3.343 3.343 0 1 1-.019-6.686h94.455a3.343 3.343 0 0 1 0 6.686z" class="cls-1" transform="translate(-381.224 -193.686)"/>
        <circle id="Ellipse_44" cx="54" cy="54" r="54" fill="#31bb9a" stroke="#fff" stroke-width="11px" transform="translate(329.551 13.629)"/>
        <path id="Path_692" d="M766.283 253.842v-20.528h-10.572v20.528h-4.936l5.11 8.851 5.115 8.853 5.112-8.852 5.111-8.852z" class="cls-2" transform="translate(-376.612 -185.06)"/>
    </g>
</svg>
