<?xml version="1.0" encoding="utf-8"?>
<!-- Generator: Adobe Illustrator 16.0.0, SVG Export Plug-In . SVG Version: 6.00 Build 0)  -->
<!DOCTYPE svg PUBLIC "-//W3C//DTD SVG 1.1//EN" "http://www.w3.org/Graphics/SVG/1.1/DTD/svg11.dtd">
<svg version="1.1" id="Calque_1" xmlns="http://www.w3.org/2000/svg" xmlns:xlink="http://www.w3.org/1999/xlink" x="0px" y="0px"
	 width="269.651px" height="135.489px" viewBox="0 0 269.651 135.489" enable-background="new 0 0 269.651 135.489"
	 xml:space="preserve">
<g>
	<path fill="#164193" d="M266.254,132.092H3.397v-45.31H50.53v0.007h215.725V132.092z M22.047,8.338h6.414l5.317,8.606
		c2.07,3.369,2.396,4.1,2.436,4.1h0.041c0.041,0,0.364-0.731,2.436-4.1l5.317-8.606h6.414v28.415h-6.698v-6.941
		c0-6.738,0.243-10.067,0.203-10.067h-0.04c-0.041,0-2.314,3.897-2.559,4.303L38,29.731h-3.53l-3.329-5.683
		c-0.243-0.406-2.517-4.303-2.557-4.303h-0.041c-0.04,0,0.202,3.329,0.202,10.067v6.941h-6.697V8.338z M87.077,22.546
		c0,8.565-6.616,14.776-14.775,14.776s-14.735-6.211-14.735-14.776c0-8.565,6.576-14.776,14.735-14.776S87.077,13.981,87.077,22.546
		 M101.868,30.461v6.292h-6.819V8.338h6.414l6.048,8.119c1.827,2.435,6.17,8.565,6.211,8.565h0.04c0.041,0-0.04-5.034-0.04-10.189
		V8.338h6.819v28.415h-6.414l-5.805-7.915c-2.598-3.573-6.414-8.971-6.454-8.971h-0.041
		C101.786,19.867,101.868,24.251,101.868,30.461 M84.839,72.2c2.72,0,5.317-1.38,6.494-3.329l6.9,1.786
		c-2.354,5.034-7.428,8.362-13.395,8.362c-8.159,0-14.735-6.21-14.735-14.775s6.576-14.776,14.735-14.776
		c5.602,0,10.392,3.004,12.908,7.55l-6.941,1.827c-1.299-1.624-3.735-2.639-5.967-2.639c-4.709,0-7.631,3.37-7.631,8.038
		C77.208,69.155,80.414,72.2,84.839,72.2 M131.68,64.244c0,8.565-6.617,14.775-14.776,14.775s-14.734-6.21-14.734-14.775
		s6.575-14.776,14.734-14.776S131.68,55.679,131.68,64.244 M159.825,61.443h-0.04c-0.041,0-2.313,3.897-2.557,4.303l-3.33,5.683
		h-3.531l-3.328-5.683c-0.243-0.406-2.517-4.303-2.558-4.303h-0.04c-0.041,0,0.202,3.329,0.202,10.067v6.941h-6.698V50.036h6.414
		l5.318,8.606c2.069,3.369,2.395,4.1,2.435,4.1h0.041c0.041,0,0.365-0.731,2.437-4.1l5.316-8.606h6.414v28.415h-6.698V71.51
		C159.622,64.772,159.866,61.443,159.825,61.443 M196.304,59.779c0,6.089-4.223,9.742-11.204,9.742h-4.019v8.93h-6.819V50.036H185.1
		C192.082,50.036,196.304,53.69,196.304,59.779 M200.454,56.409v-6.373h23.99v6.373h-8.646v22.042h-6.82V56.409H200.454z
		 M246.986,61.078v5.967h-10.838v5.033h14.086v6.373h-20.906V50.036h20.662v6.373h-13.842v4.669H246.986z M269.651,83.385V41.698
		H144.643V0H0v45.091h50.53v38.294H0v52.104h269.651V83.385z"/>
	<polygon fill="#164193" points="12.588,123.644 19.409,123.644 19.409,113.293 29.84,113.293 29.84,107.164 19.409,107.164 
		19.409,101.602 32.844,101.602 32.844,95.229 12.588,95.229 	"/>
	<path fill="#164193" d="M57.75,109.437c0,4.749-3.044,8.037-7.672,8.037c-4.587,0-7.631-3.288-7.631-8.037
		c0-4.79,3.044-8.038,7.631-8.038C54.706,101.399,57.75,104.647,57.75,109.437 M35.342,109.437c0,8.565,6.576,14.776,14.735,14.776
		s14.775-6.211,14.775-14.776s-6.616-14.776-14.775-14.776S35.342,100.872,35.342,109.437"/>
	<path fill="#164193" d="M76.923,101.603h4.709c2.436,0,3.409,1.826,3.409,3.369c0,1.542-0.974,3.369-3.409,3.369h-4.709V101.603z
		 M76.923,114.389h3.491l5.277,9.255h7.632l-6.292-10.473c3.288-1.542,5.113-4.384,5.113-8.199c0-5.846-4.302-9.743-11.446-9.743
		H70.103v28.415h6.82V114.389z"/>
	<path fill="#164193" d="M104.763,116.703c0-6.738-0.242-10.067-0.202-10.067h0.04c0.041,0,2.314,3.897,2.558,4.303l3.329,5.683
		h3.531l3.328-5.683c0.244-0.406,2.518-4.303,2.558-4.303h0.041c0.04,0-0.203,3.329-0.203,10.067v6.941h6.698V95.23h-6.414
		l-5.317,8.605c-2.071,3.369-2.396,4.1-2.436,4.1h-0.041c-0.04,0-0.365-0.731-2.436-4.1l-5.317-8.605h-6.414v28.414h6.697V116.703z"
		/>
	<path fill="#164193" d="M143.255,107.691c0.61-1.623,1.34-4.181,1.381-4.181h0.041c0.04,0,0.771,2.558,1.38,4.181l2.029,5.521
		h-6.86L143.255,107.691z M139.035,119.179h11.244l1.624,4.465h7.347L147.883,95.23h-6.454l-11.365,28.414h7.347L139.035,119.179z"
		/>
	<polygon fill="#164193" points="165.518,123.644 172.338,123.644 172.338,101.602 180.984,101.602 180.984,95.229 156.995,95.229 
		156.995,101.602 165.518,101.602 	"/>
	<rect x="184.764" y="95.229" fill="#164193" width="6.819" height="28.415"/>
	<path fill="#164193" d="M211.54,101.4c4.628,0,7.672,3.247,7.672,8.037c0,4.75-3.044,8.038-7.672,8.038
		c-4.587,0-7.631-3.288-7.631-8.038C203.909,104.647,206.953,101.4,211.54,101.4 M211.54,124.213
		c8.159,0,14.776-6.211,14.776-14.776s-6.617-14.776-14.776-14.776s-14.734,6.211-14.734,14.776S203.38,124.213,211.54,124.213"/>
	<path fill="#164193" d="M238.386,117.353c0-6.211-0.081-10.594-0.041-10.594h0.041c0.041,0,3.857,5.398,6.454,8.971l5.805,7.915
		h6.414V95.229h-6.819v6.495c0,5.155,0.08,10.189,0.041,10.189h-0.041c-0.041,0-4.385-6.13-6.211-8.565l-6.049-8.119h-6.414v28.415
		h6.82V117.353z"/>
	<path fill="#164193" d="M109.273,64.244c0,4.749,3.045,8.037,7.631,8.037c4.628,0,7.673-3.288,7.673-8.037
		c0-4.79-3.045-8.037-7.673-8.037C112.318,56.207,109.273,59.454,109.273,64.244"/>
	<path fill="#164193" d="M181.082,56.41v6.738h3.897c2.638,0,4.222-1.258,4.222-3.369c0-2.111-1.584-3.369-4.222-3.369H181.082z"/>
	<path fill="#164193" d="M64.669,22.546c0,4.749,3.045,8.037,7.631,8.037c4.629,0,7.674-3.288,7.674-8.037
		c0-4.79-3.045-8.037-7.674-8.037C67.714,14.509,64.669,17.756,64.669,22.546"/>
</g>
</svg>
