<svg xmlns="http://www.w3.org/2000/svg" id="Group_1182" width="336.539" height="260.464" viewBox="0 0 336.539 260.464">
    <defs>
        <style>
            .cls-2{fill:#cacaca}.cls-3{fill:#e6e6e6}.cls-5{fill:#fff}.cls-6{fill:#32bc9b}.cls-7{fill:#2f2e41}.cls-8{fill:#ffb6b6}
        </style>
    </defs>
    <ellipse id="Ellipse_40" cx="17.92" cy="36.563" fill="#263238" rx="17.92" ry="36.563" transform="translate(239.707 163.966)"/>
    <path id="Path_364" d="M835 654.816c7.177-43.06.072-85.965 0-86.393l-1.4.236c.072.426 7.136 43.105 0 85.924z" class="cls-2" transform="translate(-579.028 -394.439)"/>
    <path id="Rectangle_149" d="M0 0H1.416V18.377H0z" class="cls-2" transform="rotate(-61.858 282.41 -104.303)"/>
    <path id="Rectangle_150" d="M0 0H18.377V1.416H0z" class="cls-2" transform="rotate(-28.158 539.206 -412.096)"/>
    <ellipse id="Ellipse_41" cx="35.049" cy="71.513" class="cls-3" rx="35.049" ry="71.513" transform="translate(265.634 71.149)"/>
    <path id="Path_365" d="M945.45 512.173c14.019-84.11.141-167.914 0-168.751l-1.4.236c.141.835 13.978 84.413 0 168.282z" class="cls-2" transform="translate(-648.672 -252.566)"/>
    <path id="Rectangle_151" d="M0 0H1.416V35.943H0z" class="cls-2" transform="rotate(-61.858 242.175 -159.773)"/>
    <path id="Rectangle_152" d="M0 0H35.943V1.416H0z" class="cls-2" transform="rotate(-28.158 456.841 -526.002)"/>
    <path id="Path_366" fill="#e4e4e4" d="M415.491 590.913H229.065a2.589 2.589 0 0 1-2.586-2.586v-117.8a2.589 2.589 0 0 1 2.586-2.586h186.426a2.589 2.589 0 0 1 2.586 2.586v117.8a2.589 2.589 0 0 1-2.586 2.586z" transform="translate(-196.209 -331.081)"/>
    <path id="Path_367" d="M277.992 506.579a1.11 1.11 0 0 0-1.108 1.108v92.205a1.11 1.11 0 0 0 1.108 1.108h152.137a1.11 1.11 0 0 0 1.108-1.108v-92.204a1.11 1.11 0 0 0-1.108-1.108z" class="cls-5" transform="translate(-227.991 -355.444)"/>
    <path id="Path_368" d="M427.971 529.7v-5.843h-21.515v-18.278h-5.843v18.275h-38.3v-18.275h-5.843v18.275h-59.081v-18.275h-5.843v18.275h-20.429v5.846h20.429v22.722h-20.429v5.843h20.429v24.345h-20.429v5.843h51.915v12.287h5.843v-12.29h27.591v12.29h5.843v-12.29h65.661v-5.843h-65.66v-24.345h65.661v-5.843h-21.515V529.7zm-71.5 0v7.141h-59.082V529.7zm-59.078 12.984h59.078v9.738h-59.082zm0 39.926v-24.348h25.644v24.345zm59.078 0h-27.595v-24.348h27.591zm44.146-30.188h-38.3V529.7h38.3z" class="cls-3" transform="translate(-224.355 -354.813)"/>
    <circle id="Ellipse_42" cx="7.466" cy="7.466" r="7.466" class="cls-6" transform="translate(127.567 193.801)"/>
    <path id="Path_369" d="M336.393 703.62H0v-.806h336.539z" class="cls-2" transform="translate(0 -443.156)"/>
    <circle id="Ellipse_43" cx="46.054" cy="46.054" r="46.054" class="cls-6" transform="translate(89.874 64.807)"/>
    <path id="Path_370" d="M319.471 417.277l-14.55-24.855-14.55-24.855 28.8-.173 28.8-.173-14.25 25.028z" class="cls-6" transform="translate(-183.092 -231.55)"/>
    <circle id="Ellipse_44" cx="16.524" cy="16.524" r="16.524" class="cls-5" transform="translate(119.774 94.048)"/>
    <path id="Path_371" d="M484.981 97.739s-9.855-2.776-12.769 10.687-1.063 11.767-1.063 11.767l22-2.568s6.614-15.792-8.168-19.886z" class="cls-7" transform="translate(-350.118 -97.502)"/>
    <path id="Path_372" d="M449.3 258.012s-14.867.688-12.293 6.524q.273.619.508 1.16a104.393 104.393 0 0 0 6.341 12.274l9.138 15.14 3.325-1.847-9.357-24.324 8.411-.687z" class="cls-8" transform="translate(-328.765 -198.711)"/>
    <path id="Path_373" d="M558.728 273.57l4.806 10.47s3.6 3.6 7.552 18.023 4.806 13.9 4.806 13.9l-3.9 1.3-16.01-29.103-7.9-9.955 2.4-5.321z" class="cls-8" transform="translate(-398.996 -208.088)"/>
    <path id="Path_374" d="M482.057 235.776l6.906 12.854S504.621 279.4 503 279.295c-1.819-.115-6.929 2.006-8.5 4.064-.757.994-11.823-23.276-15.709-28.7l-8.411-6.522s-23.88 4.019-23.909 2.712c-.014-.64 7.906 14.72 6.281 14.039-1.852-.775-6.208 3-8.128 2.217-.792-.322-6.391-13.9-8.657-19.458a3.01 3.01 0 0 1 1.393-3.809c1.7-.886 25.367-6.289 25.367-6.289l-.414-2.114 1.722-3.435z" class="cls-7" transform="translate(-328.161 -182.309)"/>
    <circle id="Ellipse_45" cx="6.694" cy="6.694" r="6.694" class="cls-8" transform="rotate(-80.783 74.5 -63.703)"/>
    <path id="Path_375" d="M510.415 188.179c.37 1.109-2.024 1.746-5.361 1.123-2.887-.539-6.047-1.179-8.539-1.7-2.669-.556-4.576-.972-4.576-.972s-.687 4.291-2.918 3.776c-1.922-.443-7.667-20.51-9.221-26.055a1.929 1.929 0 0 1 .853-2.168l7.89-4.818s5.438-1.867 7.42-1.921 5.415-.568 5.415-.568 3.948.343 4.634 3.261 3.552 20.219 3.6 24.373c.064 4.56-.306 2.344.803 5.669z" class="cls-2" transform="translate(-355.893 -133.68)"/>
    <path id="Path_376" d="M493.413 113.485s-2.776 7.356-9.577 10.41l-1.11-6.524z" class="cls-7" transform="translate(-357.784 -107.58)"/>
    <ellipse id="Ellipse_46" cx=".944" cy="1.802" class="cls-8" rx=".944" ry="1.802" transform="translate(138.705 10.127)"/>
    <path id="Path_377" d="M473.608 348.557l-13.27 6.1-.077-.168a5.685 5.685 0 0 1 2.79-7.539l8.1-3.726z" class="cls-7" transform="translate(-343.29 -252.441)"/>
    <path id="Path_378" d="M607.433 383.568l8.14-3.649a5.685 5.685 0 0 1 7.512 2.862l.076.169-13.327 5.974z" class="cls-7" transform="translate(-436.417 -275.265)"/>
    <path id="Path_379" d="M400.589 104.51l-1.554 17.09 2.762.13z" opacity="0.2" transform="translate(-251.61 -65.898)"/>
    <path id="Path_380" d="M495.318 228.222a3.375 3.375 0 0 0-.739-5.123l-5.97-30.157-6.856 2.623 8.024 28.819a3.394 3.394 0 0 0 5.54 3.838z" class="cls-8" transform="translate(-357.171 -157.682)"/>
    <path id="Path_381" d="M488.06 185.09l-7.528 1.326a1.513 1.513 0 0 1-1.775-1.449l-.208-7.618a4.2 4.2 0 1 1 8.283-1.434l2.4 7.206a1.513 1.513 0 0 1-1.173 1.969z" class="cls-2" transform="translate(-355.111 -144.747)"/>
    <path id="Path_382" d="M525.419 226.294a3.375 3.375 0 0 0 .943-5.089l4.016-30.479-7.335.286-1.641 29.87a3.394 3.394 0 0 0 4.017 5.412z" class="cls-8" transform="translate(-381.5 -156.284)"/>
    <path id="Path_383" d="M531.886 181.282l-7.555-1.158a1.513 1.513 0 0 1-1.217-1.942l2.246-7.282a4.2 4.2 0 1 1 8.305 1.3l-.036 7.6a1.513 1.513 0 0 1-1.743 1.488z" class="cls-2" transform="translate(-383.208 -141.542)"/>
</svg>
