<svg xmlns="http://www.w3.org/2000/svg" width="306.938" height="244.647" viewBox="0 0 306.938 244.647">
    <defs>
        <style>
            .cls-1{fill:#f5f5f5}.cls-2{fill:#e0e0e0}.cls-3{fill:#ebebeb}.cls-4{fill:#32bc9b}.cls-5{opacity:.2}.cls-10,.cls-12,.cls-6,.cls-9{fill:#fff}.cls-7,.cls-9{opacity:.7}.cls-8{opacity:.5}.cls-10{opacity:.8}.cls-11{fill:#455a64}.cls-12{opacity:.6}
        </style>
    </defs>
    <g id="Documents-amico" transform="translate(-32.405 -65.5)">
        <g id="freepik--Floor--inject-10" transform="translate(32.405 149.792)">
            <path id="Path_111" d="M77.354 325.382c59.932 31.309 157.107 31.309 217.039 0s59.932-82.073 0-113.388-157.08-31.309-217.039 0-59.905 82.079 0 113.388z" class="cls-1" transform="translate(-32.405 -188.509)"/>
        </g>
        <g id="freepik--filing-cabinets--inject-10" transform="translate(41.166 122.026)">
            <path id="Path_112" d="M64.672 288.962L45.19 277.717V235.93l19.482 11.252z" class="cls-2" transform="translate(-45.19 -175.669)"/>
            <path id="Path_113" d="M73.62 244.969l27.835-16.069v41.78L73.62 286.749z" class="cls-3" transform="translate(-54.138 -173.456)"/>
            <path id="Path_114" d="M92.507 223.732L64.672 239.8 45.19 228.549l27.835-16.069z" class="cls-1" transform="translate(-45.19 -168.288)"/>
            <path id="Path_115" d="M77.687 248.785l22.264-12.855.514.295V251.7l-22.271 12.86-.514-.295z" class="cls-2" transform="translate(-55.416 -175.669)"/>
            <path id="Path_116" d="M78.43 249.222l22.27-12.862v15.48L78.43 264.7z" class="cls-1" transform="translate(-55.652 -175.804)"/>
            <path id="Path_117" d="M90.761 250.526l3.789-2.186c.487-.288.884-.158.884.288a1.775 1.775 0 0 1-.884 1.316l-3.789 2.186c-.493.288-.891.158-.891-.288a1.768 1.768 0 0 1 .891-1.316z" class="cls-2" transform="translate(-59.253 -179.527)"/>
            <path id="Path_118" d="M76.94 277.365L99.2 264.51v15.48l.514.295-22.267 12.855-.507-.295z" class="cls-2" transform="translate(-55.183 -184.665)"/>
            <path id="Path_119" d="M77.68 277.8l22.271-12.86v15.48L77.68 293.275z" class="cls-1" transform="translate(-55.416 -184.8)"/>
            <path id="Path_120" d="M90.027 279.109l3.824-2.179c.493-.288.891-.158.891.288a1.768 1.768 0 0 1-.891 1.316l-3.789 2.186c-.493.288-.891.158-.891-.288a1.768 1.768 0 0 1 .856-1.323z" class="cls-2" transform="translate(-59.033 -188.525)"/>
            <path id="Path_121" d="M64.672 224.472L45.19 213.22v-41.78l19.482 11.245z" class="cls-2" transform="translate(-45.19 -155.371)"/>
            <path id="Path_122" d="M73.62 180.469l27.835-16.069v41.787L73.62 222.256z" class="cls-3" transform="translate(-54.138 -153.155)"/>
            <path id="Path_123" d="M92.507 159.235L64.672 175.3 45.19 164.059l27.835-16.069z" class="cls-1" transform="translate(-45.19 -147.99)"/>
            <path id="Path_124" d="M77.68 184.3l22.271-12.86.514.295v15.48L78.194 200.07l-.514-.3z" class="cls-2" transform="translate(-55.416 -155.371)"/>
            <path id="Path_125" d="M90.761 186.028l3.783-2.186c.493-.281.891-.151.891.295a1.782 1.782 0 0 1-.891 1.316l-3.783 2.186c-.493.281-.891.158-.891-.288a1.788 1.788 0 0 1 .891-1.323z" class="cls-2" transform="translate(-59.253 -159.228)"/>
            <path id="Path_126" d="M76.94 212.875L99.2 200.02v15.473l.514.295-22.267 12.855-.507-.295z" class="cls-2" transform="translate(-55.183 -164.366)"/>
            <path id="Path_127" d="M77.68 213.305l22.271-12.855v15.473L77.68 228.778z" class="cls-1" transform="translate(-55.416 -164.502)"/>
            <path id="Path_128" d="M90.011 214.608l3.824-2.186c.487-.281.891-.151.891.295a1.809 1.809 0 0 1-.891 1.316l-3.824 2.167c-.493.281-.891.151-.891-.288a1.789 1.789 0 0 1 .891-1.3z" class="cls-2" transform="translate(-59.017 -168.223)"/>
            <path id="Path_129" d="M77.68 184.3l22.271-12.86v15.473L77.68 199.768z" class="cls-2" transform="translate(-55.416 -155.371)"/>
            <path id="Path_130" d="M120.831 179.368l-12.191-7.038v13.637L120.831 193z" class="cls-2" transform="translate(-65.161 -155.651)"/>
            <path id="Path_131" d="M89.87 202.711v-19.29l4.776-2.768.788 1.165 13.917-8.038v17.679z" class="cls-3" transform="translate(-59.253 -156.107)"/>
            <path id="Path_132" d="M89.87 203.083l1.391-16.883 19.482-11.245-1.391 16.871z" class="cls-1" transform="translate(-59.253 -156.479)"/>
            <path id="Path_133" d="M89.051 198.543L78.43 192.41v13.636l10.621 6.126z" class="cls-3" transform="translate(-55.652 -161.971)"/>
            <path id="Path_134" d="M93.93 193.675l22.27-12.855v15.473l-22.27 12.855z" class="cls-1" transform="translate(-60.531 -158.323)"/>
            <path id="Path_135" d="M106.261 194.978l3.783-2.186c.493-.281.891-.151.891.295a1.788 1.788 0 0 1-.891 1.316l-3.783 2.186c-.493.281-.891.151-.891-.288a1.789 1.789 0 0 1 .891-1.323z" class="cls-2" transform="translate(-64.132 -162.045)"/>
            <path id="Path_136" d="M93.59 199.385l-.74-.425v15.473l.74.425z" class="cls-2" transform="translate(-60.191 -164.033)"/>
            <path id="Path_137" d="M92.85 193.052l22.264-12.862.747.432-22.271 12.855z" class="cls-3" transform="translate(-60.191 -158.125)"/>
            <path id="Path_138" d="M400.549 252.022L381.06 240.77v-41.78l19.489 11.245z" class="cls-2" transform="translate(-150.905 -164.042)"/>
            <path id="Path_139" d="M409.5 208.019l27.835-16.069v41.787L409.5 249.806z" class="cls-3" transform="translate(-159.856 -161.826)"/>
            <path id="Path_140" d="M428.383 186.782l-27.835 16.069-19.488-11.245 27.84-16.076z" class="cls-1" transform="translate(-150.905 -156.658)"/>
            <path id="Path_141" d="M413.56 211.845l22.271-12.855.514.295-.007 15.473-22.264 12.855-.514-.295z" class="cls-2" transform="translate(-161.134 -164.042)"/>
            <path id="Path_142" d="M414.31 212.275l22.271-12.855-.007 15.473-22.264 12.855z" class="cls-1" transform="translate(-161.37 -164.178)"/>
            <path id="Path_143" d="M426.641 213.578l3.783-2.186c.493-.281.891-.151.891.288a1.788 1.788 0 0 1-.891 1.323l-3.783 2.186c-.493.281-.891.151-.891-.288a1.789 1.789 0 0 1 .891-1.323z" class="cls-2" transform="translate(-164.971 -167.899)"/>
            <path id="Path_144" d="M412.81 240.422l22.271-12.862v15.48l.514.295-22.271 12.855-.514-.295z" class="cls-2" transform="translate(-160.898 -173.035)"/>
            <path id="Path_145" d="M413.56 240.855L435.831 228v15.473l-22.271 12.855z" class="cls-1" transform="translate(-161.134 -173.173)"/>
            <path id="Path_146" d="M425.891 242.158l3.789-2.186c.487-.281.884-.151.884.288a1.8 1.8 0 0 1-.884 1.322l-3.789 2.186c-.493.281-.891.151-.891-.295a1.789 1.789 0 0 1 .891-1.316z" class="cls-2" transform="translate(-164.735 -176.895)"/>
        </g>
        <g id="freepik--Plants--inject-10" transform="translate(81.747 207.751)">
            <path id="Path_147" d="M132.245 324.319s.075-10.868-6.777-19.016c-6.064-7.216-9.292-11.793-7.38-13.9s6.023-2.618 11.567 3.221 5.975 22.01 5.208 25.669z" class="cls-4" transform="translate(-108.543 -278.393)"/>
            <path id="Path_148" d="M132.245 324.319s.075-10.868-6.777-19.016c-6.064-7.216-9.292-11.793-7.38-13.9s6.023-2.618 11.567 3.221 5.975 22.01 5.208 25.669z" class="cls-5" transform="translate(-108.543 -278.393)"/>
            <path id="Path_149" d="M134.947 313.415a.343.343 0 0 1-.336-.267c-2.4-11.218-8.552-17.419-12.012-20.119a.343.343 0 0 1-.062-.48.349.349 0 0 1 .487-.062c3.529 2.741 9.813 9.086 12.259 20.516a.336.336 0 0 1-.26.4z" class="cls-6" transform="translate(-110.094 -279.172)"/>
            <path id="Path_150" d="M127.853 334.448l-2.789 1.61a5.043 5.043 0 0 0-3.755-3.214c-3.049-.685-6.215-.569-8.353-3.214s.466-5.523 0-7.469-.768-2.508-4.591-4.454-5.331-5.174-2.453-7.36 7.538-.582 10.361 1.371a16 16 0 0 0 7.7 2.515c2.8.35 7.366 1.9 6.667 8.415a51.3 51.3 0 0 1-2.787 11.8z" class="cls-4" transform="translate(-104.411 -284.486)"/>
            <path id="Path_151" d="M122.842 332.813a.343.343 0 0 1-.1-.672c.247-.075 6.167-1.953 8.682.062a.343.343 0 0 1-.425.534c-2.22-1.782-7.99.041-8.052.062z" class="cls-6" transform="translate(-110.104 -291.403)"/>
            <path id="Path_152" d="M130.048 334.992a.336.336 0 0 1-.336-.3c-1.528-14.431-18.913-21.277-19.084-21.346a.343.343 0 0 1-.2-.445.35.35 0 0 1 .439-.2c.185.075 17.954 7.065 19.523 21.928a.343.343 0 0 1-.3.377z" class="cls-6" transform="translate(-106.298 -285.551)"/>
            <path id="Path_153" d="M379.907 313.574c.075-.24 3.015-15.37 0-26.1-2.741-9.84-6.318-13.472-11.416-14.274s-7.312 2.871-4.6 7.846 9.223 11.574 10.82 22.689c.685 4.577 1.206 8.552 1.206 8.552z" class="cls-4" transform="translate(-185.715 -273.089)"/>
            <path id="Path_154" d="M379.907 313.574c.075-.24 3.015-15.37 0-26.1-2.741-9.84-6.318-13.472-11.416-14.274s-7.312 2.871-4.6 7.846 9.223 11.574 10.82 22.689c.685 4.577 1.206 8.552 1.206 8.552z" class="cls-5" transform="translate(-185.715 -273.089)"/>
            <path id="Path_155" d="M380.26 305.926a.343.343 0 0 1-.322-.363c.685-12.252-3.317-23.189-10.491-28.554a.343.343 0 0 1-.069-.48.349.349 0 0 1 .48-.069c7.353 5.482 11.478 16.665 10.758 29.144a.343.343 0 0 1-.356.322z" class="cls-6" transform="translate(-187.788 -274.129)"/>
            <path id="Path_156" d="M394.308 324.45c-.391-2.816 1.227-7.038 5.071-8.038s5.557-3.207 4.173-5.619-1.062-4.625 2.426-5.626 6.544-2.741 4.536-6.428c-1.46-2.666-1.782-4.392 1.8-9.642 2.967-4.358.541-6.914-3.173-6.434s-6.01 4.906-8.333 5.646-2.858-3.207-5.921-1.439-2.878 6.3-2.974 9.456-.3 3.872-3.07 3.488-5.482.069-5.42 6.763c.048 5.742 3.111 12.855 3.111 12.855z" class="cls-4" transform="translate(-192.229 -276.085)"/>
            <path id="Path_157" d="M392.062 321.238h-.034a.349.349 0 0 1-.308-.384c1.932-17.261 16.748-31.823 20.612-34.776a.345.345 0 1 1 .418.548c-3.817 2.912-18.44 17.282-20.345 34.3a.349.349 0 0 1-.343.308z" class="cls-6" transform="translate(-194.841 -277.155)"/>
            <path id="Path_158" d="M401.923 309.584a.35.35 0 0 1-.322-.219.356.356 0 0 1 .206-.445 26.835 26.835 0 0 1 12.054-1.042.343.343 0 0 1 .281.391.356.356 0 0 1-.391.288c-.062 0-6.352-.987-11.7 1.007a.391.391 0 0 1-.128.02z" class="cls-6" transform="translate(-197.946 -283.955)"/>
            <path id="Path_159" d="M392.708 321.093a.342.342 0 0 1-.254-.116 20.2 20.2 0 0 1-4.516-9.367.343.343 0 1 1 .678-.1 19.805 19.805 0 0 0 4.351 9.011.349.349 0 0 1-.26.576z" class="cls-6" transform="translate(-193.65 -285.089)"/>
        </g>
        <g id="freepik--folder-2--inject-10" transform="translate(105.189 98.625)">
            <path id="Path_160" d="M138.62 166.872v106.063l108.557-62.673-.007-96.422-80.716 46.6-2.789-8.038z" class="cls-4" transform="translate(-138.62 -113.84)"/>
            <path id="Path_161" d="M138.62 166.872v106.063l108.557-62.673-.007-96.422-80.716 46.6-2.789-8.038z" class="cls-7" transform="translate(-138.62 -113.84)"/>
            <path id="Path_162" d="M138.62 272.935l5.564-96.422 108.558-62.673-5.564 96.422z" class="cls-2" transform="translate(-138.62 -113.84)"/>
            <path id="Path_163" d="M138.62 273.671l8.346-94.811 108.557-62.68-8.346 94.82z" class="cls-4" transform="translate(-138.62 -114.577)"/>
            <path id="Path_164" d="M138.62 273.671l8.346-94.811 108.557-62.68-8.346 94.82z" class="cls-7" transform="translate(-138.62 -114.577)"/>
        </g>
        <g id="freepik--folder-1--inject-10" transform="translate(121.888 108.266)">
            <path id="Path_165" d="M162.99 180.942v106.07l108.557-62.68V127.91l-80.723 46.6-2.782-8.038z" class="cls-4" transform="translate(-162.99 -127.91)"/>
            <path id="Path_166" d="M162.99 180.942v106.07l108.557-62.68V127.91l-80.723 46.6-2.782-8.038z" class="cls-8" transform="translate(-162.99 -127.91)"/>
            <path id="Path_167" d="M162.99 287.012l5.564-96.429 108.558-62.673-5.564 96.422z" class="cls-2" transform="translate(-162.99 -127.91)"/>
            <path id="Path_168" d="M162.99 287.748l8.346-94.818 108.557-62.68-8.346 94.818z" class="cls-4" transform="translate(-162.99 -128.646)"/>
            <path id="Path_169" d="M162.99 287.748l8.346-94.818 108.557-62.68-8.346 94.818z" class="cls-8" transform="translate(-162.99 -128.646)"/>
        </g>
        <g id="freepik--Documents--inject-10" transform="translate(141.37 65.5)">
            <path id="Path_170" d="M275.956 385.312c-19.489-11.252-37.565-23.484-45.816-37.833L255.22 333z" class="cls-2" transform="translate(-203.607 -149.695)"/>
            <path id="Path_171" d="M191.42 197.362v106.063l108.557-62.673V144.33l-80.723 46.6-2.782-8.038z" class="cls-4" transform="translate(-191.42 -90.312)"/>
            <path id="Path_172" d="M191.42 197.362v106.063l108.557-62.673V144.33l-80.723 46.6-2.782-8.038z" class="cls-5" transform="translate(-191.42 -90.312)"/>
            <path id="Path_173" d="M236.915 204.074c-.274 0-.315-.315-.315-.5V113.12a2.275 2.275 0 0 1 1.014-1.754l78.352-45.226a.726.726 0 0 1 .356-.11c.274 0 .315.315.315.5v90.453a2.282 2.282 0 0 1-1.014 1.761l-78.352 45.227a.747.747 0 0 1-.356.103z" class="cls-6" transform="translate(-205.64 -65.667)"/>
            <path id="Path_174" d="M316.127 66.178a.68.68 0 0 1 0 .151v90.453a1.967 1.967 0 0 1-.843 1.466l-78.352 45.227-.137.062a.419.419 0 0 1 0-.151v-90.453a1.967 1.967 0 0 1 .843-1.46l78.352-45.226a.384.384 0 0 1 .144-.062m.041-.685a1.069 1.069 0 0 0-.528.158L237.3 110.884a2.638 2.638 0 0 0-1.185 2.056v90.453c0 .534.267.843.685.843a1.055 1.055 0 0 0 .528-.158l78.352-45.227a2.611 2.611 0 0 0 1.185-2.056V66.343c-.005-.535-.272-.85-.69-.843z" class="cls-4" transform="translate(-205.486 -65.5)"/>
            <path id="Path_175" d="M316.127 66.178a.68.68 0 0 1 0 .151v90.453a1.967 1.967 0 0 1-.843 1.466l-78.352 45.227-.137.062a.419.419 0 0 1 0-.151v-90.453a1.967 1.967 0 0 1 .843-1.46l78.352-45.226a.384.384 0 0 1 .144-.062m.041-.685a1.069 1.069 0 0 0-.528.158L237.3 110.884a2.638 2.638 0 0 0-1.185 2.056v90.453c0 .534.267.843.685.843a1.055 1.055 0 0 0 .528-.158l78.352-45.227a2.611 2.611 0 0 0 1.185-2.056V66.343c-.005-.535-.272-.85-.69-.843z" class="cls-9" transform="translate(-205.486 -65.5)"/>
            <path id="Path_176" d="M248.29 132.379l27.835-16.069v32.138l-27.835 16.069z" class="cls-4" transform="translate(-209.32 -81.492)"/>
            <path id="Path_177" d="M248.29 132.379l27.835-16.069v32.138l-27.835 16.069z" class="cls-10" transform="translate(-209.32 -81.492)"/>
            <path id="Path_178" d="M273.875 128v9.662l-.877.487V135.2c0-1.631-1.323-2.186-2.967-1.24l-11.793 6.818a6.145 6.145 0 0 0-2.967 4.667v2.953l-.87.521v-9.641z" class="cls-6" transform="translate(-211.243 -85.172)"/>
            <path id="Path_179" d="M269.791 155.905c-1.425.822-2.583-.041-2.583-1.939V138.5l-3.584 1.946v15.589a6.131 6.131 0 0 1-2.583 4.913l-2.59 1.494v1.028l13.917-8.038v-1.021z" class="cls-6" transform="translate(-212.518 -88.477)"/>
            <path id="Path_180" d="M297 105.461c0 .891.8 1.144 1.782.582l27.081-15.658a3.577 3.577 0 0 0 1.782-2.638c0-.884-.8-1.144-1.782-.576L298.8 102.8a3.563 3.563 0 0 0-1.8 2.661z" class="cls-11" transform="translate(-224.651 -72.226)"/>
            <path id="Path_181" d="M297 119.477c0 .891.8 1.151 1.782.582l27.061-15.624a3.577 3.577 0 0 0 1.782-2.638c0-.884-.8-1.144-1.782-.576l-27.061 15.624a3.577 3.577 0 0 0-1.782 2.632z" class="cls-11" transform="translate(-224.651 -76.648)"/>
            <path id="Path_182" d="M297 133.577c0 .891.8 1.151 1.782.582l27.061-15.624a3.577 3.577 0 0 0 1.782-2.631c0-.891-.8-1.151-1.782-.582l-27.061 15.624a3.577 3.577 0 0 0-1.782 2.631z" class="cls-11" transform="translate(-224.651 -81.086)"/>
            <path id="Path_183" d="M297 147.647c0 .891.8 1.151 1.782.582l27.061-15.624a3.577 3.577 0 0 0 1.782-2.631c0-.891-.8-1.151-1.782-.582l-27.061 15.624a3.577 3.577 0 0 0-1.782 2.631z" class="cls-11" transform="translate(-224.651 -85.515)"/>
            <path id="Path_184" d="M248.29 180.992c0 .891.795 1.151 1.782.582l60.46-34.948a3.564 3.564 0 0 0 1.781-2.626c0-.891-.8-1.144-1.782-.582l-60.46 34.948a3.557 3.557 0 0 0-1.781 2.626z" class="cls-11" transform="translate(-209.32 -89.929)"/>
            <path id="Path_185" d="M248.29 195.08c0 .891.795 1.151 1.782.582l60.46-34.907a3.577 3.577 0 0 0 1.782-2.638c0-.884-.8-1.144-1.782-.576l-60.46 34.907a3.557 3.557 0 0 0-1.782 2.632z" class="cls-11" transform="translate(-209.32 -94.375)"/>
            <path id="Path_186" d="M248.29 209.156c0 .884.795 1.144 1.782.576l60.46-34.907a3.577 3.577 0 0 0 1.782-2.638c0-.884-.8-1.144-1.782-.576l-60.46 34.907a3.557 3.557 0 0 0-1.782 2.638z" class="cls-11" transform="translate(-209.32 -98.803)"/>
            <path id="Path_187" d="M191.42 308.59l19.48-85.17 108.557-62.68-19.482 85.177z" class="cls-4" transform="translate(-191.42 -95.477)"/>
            <path id="Path_188" d="M230.18 255.3v63.173l25.053-14.466V240.84z" class="cls-4" transform="translate(-203.62 -120.688)"/>
            <path id="Path_189" d="M230.18 255.3v63.173l25.053-14.466V240.84z" class="cls-5" transform="translate(-203.62 -120.688)"/>
            <path id="Path_190" d="M276.759 342.016c-2.131-1.59-22.675-17.289-33.118-39.745-11.115-23.874-11.1-51.723-11.1-62.2v-.329l74.473-42.993c0 10.573 0 38.463 11.163 62.419 10.2 21.928 29.959 37.428 33.091 39.8z" class="cls-6" transform="translate(-204.363 -106.811)"/>
            <path id="Path_191" d="M306.5 197.1c0 11.019.212 38.374 11.2 61.974 9.861 21.174 28.609 36.4 32.782 39.614l-73.87 42.65c-2.885-2.172-22.654-17.611-32.824-39.45-11.1-23.806-11.1-51.6-11.1-62.063v-.13l73.788-42.6m.685-1.185L232 239.3c0 9.861-.206 38.511 11.135 62.872 11.163 23.908 33.406 39.984 33.406 39.984l75.179-43.4s-22.271-16.076-33.4-39.984c-11.348-24.361-11.135-53.011-11.135-62.872z" class="cls-4" transform="translate(-204.192 -106.543)"/>
            <path id="Path_192" d="M306.5 197.1c0 11.019.212 38.374 11.2 61.974 9.861 21.174 28.609 36.4 32.782 39.614l-73.87 42.65c-2.885-2.172-22.654-17.611-32.824-39.45-11.1-23.806-11.1-51.6-11.1-62.063v-.13l73.788-42.6m.685-1.185L232 239.3c0 9.861-.206 38.511 11.135 62.872 11.163 23.908 33.406 39.984 33.406 39.984l75.179-43.4s-22.271-16.076-33.4-39.984c-11.348-24.361-11.135-53.011-11.135-62.872z" class="cls-9" transform="translate(-204.192 -106.543)"/>
            <path id="Path_193" d="M317.6 217.01l-23.764 13.705a3.372 3.372 0 0 0-1.727 2.6c.034.87.863 1.117 1.843.548l23.771-13.7a3.371 3.371 0 0 0 1.72-2.563c-.043-.912-.855-1.159-1.843-.59z" class="cls-11" transform="translate(-223.112 -113.092)"/>
            <path id="Path_194" d="M318.373 230.66l-23.765 13.705a3.166 3.166 0 0 0-1.658 2.563c.075.843.939 1.069 1.919.5l23.771-13.705a3.125 3.125 0 0 0 1.638-2.556c-.069-.849-.918-1.055-1.905-.507z" class="cls-11" transform="translate(-223.376 -117.388)"/>
            <path id="Path_195" d="M319.792 243.924l-23.771 13.7a2.947 2.947 0 0 0-1.576 2.515c.116.815 1.014 1.028 2 .459l23.772-13.698a2.9 2.9 0 0 0 1.555-2.508c-.123-.817-1-1.037-1.98-.468z" class="cls-11" transform="translate(-223.843 -121.559)"/>
            <path id="Path_196" d="M321.9 256.788l-23.771 13.705a2.721 2.721 0 0 0-1.494 2.474c.164.795 1.1.973 2.056.4l23.764-13.705a2.684 2.684 0 0 0 1.48-2.467c-.16-.795-1.017-.975-2.035-.407z" class="cls-11" transform="translate(-224.53 -125.604)"/>
            <path id="Path_197" d="M324.767 269.224L301 282.929a2.4 2.4 0 0 0-1.371 2.412c.247.761 1.186.932 2.165.363L325.562 272a2.407 2.407 0 0 0 1.371-2.412c-.233-.768-1.186-.932-2.166-.364z" class="cls-11" transform="translate(-225.461 -129.515)"/>
            <path id="Path_198" d="M312.761 281.208l-57.931 33.447c-.98.569-1.576 1.624-1.309 2.357s1.288.87 2.268.3l57.931-33.447a2.23 2.23 0 0 0 1.288-2.357c-.267-.739-1.302-.869-2.247-.3z" class="cls-11" transform="translate(-210.946 -133.283)"/>
            <path id="Path_199" d="M317.249 292.654L259.325 326.1c-.987.569-1.528 1.6-1.2 2.3s1.371.809 2.371.24l57.931-33.447c.987-.569 1.514-1.6 1.186-2.3s-1.377-.801-2.364-.239z" class="cls-11" transform="translate(-212.385 -136.883)"/>
            <path id="Path_200" d="M322.832 303.556L264.9 337c-.987.569-1.473 1.569-1.083 2.234s1.508.733 2.494.164l57.89-33.447c.98-.562 1.453-1.556 1.062-2.22s-1.472-.744-2.431-.175z" class="cls-11" transform="translate(-214.165 -140.309)"/>
            <path id="Path_201" d="M329.334 313.868l-57.924 33.44c-.987.569-1.425 1.549-.98 2.172a2.055 2.055 0 0 0 2.6.11l57.924-33.447c.987-.569 1.412-1.535.966-2.165a2.035 2.035 0 0 0-2.586-.11z" class="cls-11" transform="translate(-216.234 -143.548)"/>
            <path id="Path_202" d="M336.74 323.667l-57.931 33.44c-.98.569-1.371 1.521-.877 2.117a2.251 2.251 0 0 0 2.693.055l57.931-33.461c.98-.569 1.371-1.508.863-2.1a2.2 2.2 0 0 0-2.679-.051z" class="cls-11" transform="translate(-218.582 -146.625)"/>
            <path id="Path_203" d="M344.912 333L287 366.444c-.987.569-1.371 1.5-.795 2.056a2.473 2.473 0 0 0 2.775 0l57.931-33.447c.987-.569 1.329-1.487.781-2.056a2.468 2.468 0 0 0-2.78.003z" class="cls-11" transform="translate(-221.169 -149.562)"/>
            <path id="Path_204" d="M353.932 341.928L296 375.368c-.98.569-1.3 1.48-.685 2.021a2.664 2.664 0 0 0 2.864-.048l57.883-33.447c.98-.569 1.288-1.46.685-2.008a2.568 2.568 0 0 0-2.815.042z" class="cls-11" transform="translate(-224.022 -152.367)"/>
            <path id="Path_205" d="M269.508 244.44L242.18 260.2c.3 9.9 1.432 24.183 5.571 38.566l27.335-15.761c-4.146-14.382-5.277-28.67-5.578-38.565z" class="cls-4" transform="translate(-207.397 -121.821)"/>
            <path id="Path_206" d="M269.508 244.44L242.18 260.2c.3 9.9 1.432 24.183 5.571 38.566l27.335-15.761c-4.146-14.382-5.277-28.67-5.578-38.565z" class="cls-10" transform="translate(-207.397 -121.821)"/>
            <path id="Path_207" d="M253.322 262.667a4.516 4.516 0 0 0-1.329-3.467l-9.813 5.66c.082 2.618.219 5.544.459 8.7a6.435 6.435 0 0 0 3.707-.685c3.854-1.775 6.976-6.356 6.976-10.208z" class="cls-4" transform="translate(-207.397 -126.467)"/>
            <path id="Path_208" d="M253.322 262.667a4.516 4.516 0 0 0-1.329-3.467l-9.813 5.66c.082 2.618.219 5.544.459 8.7a6.435 6.435 0 0 0 3.707-.685c3.854-1.775 6.976-6.356 6.976-10.208z" class="cls-12" transform="translate(-207.397 -126.467)"/>
            <path id="Path_209" d="M277.578 281.017c-1.823-2.3-5.53-9.388-7.113-12.478a.685.685 0 0 0-1.268.117 75.207 75.207 0 0 0-2.96 17.988 26.042 26.042 0 0 1-5.8-6.455.61.61 0 0 0-1.09.192 67.208 67.208 0 0 0-1.487 22.826l22.04-12.734c-.917-3.18-1.677-6.345-2.322-9.456z" class="cls-4" transform="translate(-212.212 -129.288)"/>
            <path id="Path_210" d="M277.578 281.017c-1.823-2.3-5.53-9.388-7.113-12.478a.685.685 0 0 0-1.268.117 75.207 75.207 0 0 0-2.96 17.988 26.042 26.042 0 0 1-5.8-6.455.61.61 0 0 0-1.09.192 67.208 67.208 0 0 0-1.487 22.826l22.04-12.734c-.917-3.18-1.677-6.345-2.322-9.456z" class="cls-12" transform="translate(-212.212 -129.288)"/>
        </g>
    </g>
</svg>
